<svg width="24" height="24" viewBox="0 0 24 24" fill="none" xmlns="http://www.w3.org/2000/svg">
<g clip-path="url(#clip0_618_25689)">
<path fill-rule="evenodd" clip-rule="evenodd" d="M12 1.4502C6.17341 1.4502 1.45001 6.17359 1.45001 12.0002C1.45001 17.8268 6.17341 22.5502 12 22.5502C17.8266 22.5502 22.55 17.8268 22.55 12.0002C22.55 6.17359 17.8266 1.4502 12 1.4502ZM-0.0499878 12.0002C-0.0499878 5.34516 5.34498 -0.0498047 12 -0.0498047C18.655 -0.0498047 24.05 5.34516 24.05 12.0002C24.05 18.6552 18.655 24.0502 12 24.0502C5.34498 24.0502 -0.0499878 18.6552 -0.0499878 12.0002Z" fill="#1B1B1B"/>
<path fill-rule="evenodd" clip-rule="evenodd" d="M3.3292 19.565C4.94925 16.3249 8.20064 14.1504 12 14.1504C15.8107 14.1504 19.0519 16.4349 20.6662 19.5558C20.8162 19.8459 20.7613 20.1998 20.5303 20.4307C18.3948 22.5662 15.3061 23.9504 12 23.9504C8.70952 23.9504 5.60834 22.6766 3.45691 20.4176C3.23891 20.1887 3.18783 19.8477 3.3292 19.565ZM4.92617 19.7624C6.75449 21.4701 9.28556 22.4504 12 22.4504C14.6889 22.4504 17.2201 21.4007 19.0609 19.7564C17.6049 17.336 14.9919 15.6504 12 15.6504C8.98614 15.6504 6.37306 17.2691 4.92617 19.7624Z" fill="#1B1B1B"/>
<path fill-rule="evenodd" clip-rule="evenodd" d="M12 5.8501C10.426 5.8501 9.15002 7.12609 9.15002 8.7001C9.15002 10.2741 10.426 11.5501 12 11.5501C13.574 11.5501 14.85 10.2741 14.85 8.7001C14.85 7.12609 13.574 5.8501 12 5.8501ZM7.65002 8.7001C7.65002 6.29766 9.59759 4.3501 12 4.3501C14.4025 4.3501 16.35 6.29766 16.35 8.7001C16.35 11.1025 14.4025 13.0501 12 13.0501C9.59759 13.0501 7.65002 11.1025 7.65002 8.7001Z" fill="#1B1B1B"/>
</g>
<defs>
<clipPath id="clip0_618_25689">
<rect width="24" height="24" fill="white"/>
</clipPath>
</defs>
</svg>
