<svg width="16" height="17" viewBox="0 0 16 17" fill="none" xmlns="http://www.w3.org/2000/svg">
    <path fill-rule="evenodd" clip-rule="evenodd" d="M1 12.3262C1 12.6023 1.22386 12.8262 1.5 12.8262H13.2929L10.1464 15.9726C9.95118 16.1679 9.95118 16.4845 10.1464 16.6797C10.3417 16.875 10.6583 16.875 10.8536 16.6797L14.8536 12.6797C15.0488 12.4845 15.0488 12.1679 14.8536 11.9726L10.8536 7.97262C10.6583 7.77736 10.3417 7.77736 10.1464 7.97262C9.95118 8.16788 9.95118 8.48446 10.1464 8.67973L13.2929 11.8262H1.5C1.22386 11.8262 1 12.05 1 12.3262Z" fill="#C8C8C8"/>
    <path fill-rule="evenodd" clip-rule="evenodd" d="M15 5.32617C15 5.60231 14.7761 5.82617 14.5 5.82617L2.70711 5.82617L5.85355 8.97262C6.04882 9.16788 6.04882 9.48446 5.85355 9.67973C5.65829 9.87499 5.34171 9.87499 5.14645 9.67973L1.14645 5.67973C0.951184 5.48446 0.951184 5.16788 1.14645 4.97262L5.14645 0.972618C5.34171 0.777356 5.65829 0.777356 5.85355 0.972618C6.04882 1.16788 6.04882 1.48446 5.85355 1.67973L2.70711 4.82617L14.5 4.82617C14.7761 4.82617 15 5.05003 15 5.32617Z" fill="#C8C8C8"/>
</svg>