<svg xmlns="http://www.w3.org/2000/svg" width="20" height="20" viewBox="0 0 20 20" fill="none">
  <g clip-path="url(#clip0_1959_30252)">
    <path d="M17.1422 2.02637H2.84219C1.95853 2.02637 1.24219 2.74271 1.24219 3.62637V6.00137H18.7422V3.62637C18.7422 2.74271 18.0258 2.02637 17.1422 2.02637Z" stroke="#585858" stroke-miterlimit="10"/>
    <path d="M18.7422 6.00098H1.24219V17.126C1.24219 18.0096 1.95853 18.726 2.84219 18.726H17.1422C18.0258 18.726 18.7422 18.0096 18.7422 17.126V6.00098Z" stroke="#585858" stroke-miterlimit="10"/>
    <path d="M5.22656 0.43457V3.6179" stroke="#585858" stroke-miterlimit="10"/>
    <path d="M14.7656 0.43457V3.6179" stroke="#585858" stroke-miterlimit="10"/>
    <path d="M9.99219 0.43457V3.6179" stroke="#585858" stroke-miterlimit="10"/>
    <path d="M9.99284 9.16895C10.6249 9.16895 11.2311 9.42005 11.6781 9.86701C12.1251 10.314 12.3762 10.9202 12.3762 11.5523V13.9356H7.60951V11.5773C7.6062 11.2622 7.66541 10.9496 7.7837 10.6575C7.90199 10.3655 8.07702 10.0998 8.29867 9.87582C8.52031 9.65186 8.78416 9.47406 9.07497 9.35273C9.36577 9.23139 9.67774 9.16893 9.99284 9.16895Z" stroke="#585858" stroke-miterlimit="10"/>
    <path d="M13.9656 13.96H6.01562" stroke="#585858" stroke-miterlimit="10"/>
    <path d="M10.0026 15.5433C10.4398 15.5433 10.7943 15.1889 10.7943 14.7516C10.7943 14.3144 10.4398 13.96 10.0026 13.96C9.56538 13.96 9.21094 14.3144 9.21094 14.7516C9.21094 15.1889 9.56538 15.5433 10.0026 15.5433Z" stroke="#585858" stroke-miterlimit="10"/>
  </g>
  <defs>
    <clipPath id="clip0_1959_30252">
      <rect width="20" height="20" fill="white"/>
    </clipPath>
  </defs>
</svg>