<svg width="12" height="12" viewBox="0 0 12 12" fill="none" xmlns="http://www.w3.org/2000/svg">
<path d="M5.52447 1.58156C5.67415 1.1209 6.32585 1.1209 6.47553 1.58156L7.09607 3.49139C7.29688 4.10943 7.87282 4.52786 8.52265 4.52786H10.5308C11.0151 4.52786 11.2165 5.14767 10.8247 5.43237L9.20006 6.61271C8.67433 6.99468 8.45434 7.67173 8.65516 8.28976L9.2757 10.1996C9.42537 10.6602 8.89813 11.0433 8.50628 10.7586L6.88168 9.57827C6.35595 9.1963 5.64405 9.19631 5.11832 9.57827L3.49372 10.7586C3.10187 11.0433 2.57463 10.6603 2.7243 10.1996L3.34484 8.28976C3.54566 7.67173 3.32567 6.99468 2.79994 6.61271L1.17534 5.43237C0.783482 5.14767 0.984868 4.52786 1.46923 4.52786H3.47735C4.12719 4.52786 4.70312 4.10942 4.90393 3.49139L5.52447 1.58156Z" stroke="#ECB8BB"/>
</svg>
