<svg width="20" height="20" viewBox="0 0 20 20" fill="none" xmlns="http://www.w3.org/2000/svg">
<path d="M2.14258 4.99993C2.14258 4.60544 2.46238 4.28564 2.85686 4.28564H17.1426C17.5371 4.28564 17.8569 4.60544 17.8569 4.99993C17.8569 5.39442 17.5371 5.71422 17.1426 5.71422H2.85686C2.46238 5.71422 2.14258 5.39442 2.14258 4.99993Z" fill="#1B1B1B"/>
<path d="M2.14258 9.99993C2.14258 9.60543 2.46238 9.28564 2.85686 9.28564H17.1426C17.5371 9.28564 17.8569 9.60543 17.8569 9.99993C17.8569 10.3944 17.5371 10.7142 17.1426 10.7142H2.85686C2.46238 10.7142 2.14258 10.3944 2.14258 9.99993Z" fill="#1B1B1B"/>
<path d="M2.85686 14.2856C2.46238 14.2856 2.14258 14.6054 2.14258 14.9999C2.14258 15.3944 2.46238 15.7142 2.85686 15.7142H17.1426C17.5371 15.7142 17.8569 15.3944 17.8569 14.9999C17.8569 14.6054 17.5371 14.2856 17.1426 14.2856H2.85686Z" fill="#1B1B1B"/>
</svg>
