<svg width="25" height="24" viewBox="0 0 25 24" fill="none" xmlns="http://www.w3.org/2000/svg">
<path fill-rule="evenodd" clip-rule="evenodd" d="M10.5633 1.05546C11.079 0.539731 11.7785 0.25 12.5078 0.25C13.2372 0.25 13.9366 0.539731 14.4524 1.05546C14.9681 1.57118 15.2578 2.27065 15.2578 3C15.2578 3.41421 14.922 3.75 14.5078 3.75C14.0936 3.75 13.7578 3.41421 13.7578 3C13.7578 2.66848 13.6261 2.35054 13.3917 2.11612C13.1573 1.8817 12.8393 1.75 12.5078 1.75C12.1763 1.75 11.8583 1.8817 11.6239 2.11612C11.3895 2.35054 11.2578 2.66848 11.2578 3C11.2578 3.41421 10.922 3.75 10.5078 3.75C10.0936 3.75 9.75781 3.41421 9.75781 3C9.75781 2.27065 10.0475 1.57118 10.5633 1.05546Z" fill="#1B1B1B"/>
<path d="M15.5702 5.25H7.22217C6.56513 5.2497 5.9297 5.48466 5.43091 5.91234C4.93201 6.34011 4.6028 6.93239 4.50289 7.58193L3.11789 16.5819C3.05763 16.9738 3.0828 17.3742 3.19173 17.7554C3.30065 18.1367 3.49073 18.4899 3.74893 18.7908C4.00714 19.0917 4.32736 19.3332 4.68764 19.4988C5.0479 19.6643 5.43969 19.75 5.83617 19.75H19.1762C19.5724 19.7497 19.9646 19.6637 20.3246 19.4979C20.6845 19.3322 21.0044 19.0906 21.2623 18.7898C21.5202 18.4889 21.71 18.1358 21.8188 17.7548C21.9276 17.3737 21.9527 16.9737 21.8925 16.582L20.844 9.76862C20.4239 9.91843 19.9715 10 19.5 10C19.4537 10 19.4075 9.99921 19.3615 9.99765L20.4099 16.8101C20.4373 16.9881 20.4258 17.1699 20.3764 17.3431C20.327 17.5163 20.2407 17.6768 20.1234 17.8135C20.0062 17.9503 19.8608 18.0601 19.6972 18.1354C19.5336 18.2108 19.3556 18.2498 19.1755 18.25H5.83608C5.65585 18.25 5.47775 18.2111 5.31398 18.1358C5.15021 18.0606 5.00466 17.9508 4.88729 17.814C4.76993 17.6772 4.68353 17.5167 4.63402 17.3434C4.58452 17.1701 4.57307 16.9881 4.60045 16.81L5.98545 7.81C6.03086 7.51474 6.1805 7.24551 6.40728 7.05106C6.63406 6.85662 6.92298 6.74982 7.2217 6.75L15.5702 6.75C15.5241 6.50706 15.5 6.25635 15.5 6C15.5 5.74365 15.5241 5.49294 15.5702 5.25Z" fill="#1B1B1B"/>
<circle cx="19.5" cy="6" r="3" fill="#ECB8BB"/>
</svg>
