<svg width="20" height="20" viewBox="0 0 20 20" fill="none" xmlns="http://www.w3.org/2000/svg">
<path fill-rule="evenodd" clip-rule="evenodd" d="M8.06944 1.23905C8.58516 0.723325 9.28464 0.433594 10.014 0.433594C10.7433 0.433594 11.4428 0.723325 11.9585 1.23905C12.4742 1.75477 12.764 2.45425 12.764 3.18359C12.764 3.59781 12.4282 3.93359 12.014 3.93359C11.5998 3.93359 11.264 3.59781 11.264 3.18359C11.264 2.85207 11.1323 2.53413 10.8979 2.29971C10.6634 2.06529 10.3455 1.93359 10.014 1.93359C9.68246 1.93359 9.36452 2.06529 9.1301 2.29971C8.89568 2.53413 8.76398 2.85207 8.76398 3.18359C8.76398 3.59781 8.42819 3.93359 8.01398 3.93359C7.59977 3.93359 7.26398 3.59781 7.26398 3.18359C7.26398 2.45425 7.55371 1.75477 8.06944 1.23905ZM4.72952 6.93359C4.43079 6.93341 4.14187 7.04021 3.91509 7.23466C3.68832 7.4291 3.53867 7.69834 3.49327 7.99359L2.10827 16.9936C2.10826 16.9936 2.10827 16.9936 2.10827 16.9936C2.08089 17.1717 2.09233 17.3537 2.14183 17.527C2.19134 17.7003 2.27774 17.8608 2.39511 17.9976C2.51247 18.1344 2.65803 18.2441 2.82179 18.3194C2.98556 18.3947 3.16366 18.4336 3.34389 18.4336H16.6833C16.8634 18.4334 17.0414 18.3944 17.205 18.319C17.3686 18.2437 17.514 18.1339 17.6313 17.9971C17.7485 17.8604 17.8348 17.6999 17.8842 17.5267C17.9336 17.3535 17.9451 17.1717 17.9177 16.9937C17.9177 16.9936 17.9177 16.9937 17.9177 16.9937L16.5327 7.99367C16.4872 7.69754 16.338 7.42865 16.1121 7.23486C15.8855 7.04043 15.5967 6.93356 15.2981 6.93359H4.72952ZM4.73045 5.43359C4.07325 5.43319 3.43763 5.66815 2.93872 6.09594C2.43982 6.5237 2.11061 7.11599 2.01071 7.76552C2.0107 7.76554 2.01071 7.7655 2.01071 7.76552L0.625707 16.7655C0.565438 17.1574 0.590617 17.5578 0.69954 17.939C0.808463 18.3203 0.998543 18.6735 1.25675 18.9744C1.51495 19.2753 1.83517 19.5168 2.19545 19.6824C2.55571 19.8479 2.94751 19.9336 3.34398 19.9336C3.34395 19.9336 3.34401 19.9336 3.34398 19.9336H16.684C17.0803 19.9332 17.4724 19.8473 17.8324 19.6815C18.1923 19.5158 18.5122 19.2742 18.7701 18.9733C19.028 18.6725 19.2178 18.3194 19.3266 17.9384C19.4354 17.5573 19.4605 17.1573 19.4003 16.7656L18.0153 7.76559C18.0153 7.76557 18.0153 7.76562 18.0153 7.76559C17.9155 7.11727 17.5881 6.52477 17.0888 6.09638C16.5902 5.66865 15.9549 5.43354 15.298 5.43359C15.298 5.43359 15.298 5.43359 15.298 5.43359H4.73045Z" fill="#1B1B1B"/>
</svg>
