<svg width="24" height="24" viewBox="0 0 24 24" fill="none" xmlns="http://www.w3.org/2000/svg">
<path d="M17.8029 5.23502C16.9138 1.85666 13.8763 2.64198 12.4686 3.45693C8.46792 -1.43287 4.68949 1.90099 3.80045 5.45735C-1.31155 7.90222 1.35601 13.014 5.57901 11.9029C5.57896 16.7924 10.024 15.6811 11.3573 13.681C14.6915 16.5702 16.4693 13.7551 17.1361 11.9029C18.47 13.014 21.804 14.1253 20.9145 9.45804C23.582 6.56845 20.0259 4.12358 17.8029 5.23502Z" stroke="#1B1B1B" stroke-width="1.5"/>
<path d="M20.9421 17.6918C20.9421 18.5204 20.2704 19.1921 19.4418 19.1921C18.6131 19.1921 17.9414 18.5204 17.9414 17.6918C17.9414 16.8631 18.6131 16.1914 19.4418 16.1914C20.2704 16.1914 20.9421 16.8631 20.9421 17.6918Z" stroke="#1B1B1B"/>
<path d="M23.2005 21.444C23.2005 22.0271 22.7278 22.4998 22.1447 22.4998C21.5616 22.4998 21.0889 22.0271 21.0889 21.444C21.0889 20.8609 21.5616 20.3882 22.1447 20.3882C22.7278 20.3882 23.2005 20.8609 23.2005 21.444Z" stroke="#1B1B1B"/>
</svg>
