<svg width="40" height="40" viewBox="0 0 40 40" fill="none" xmlns="http://www.w3.org/2000/svg">
<rect x="0.5" y="0.5" width="39" height="39" rx="19.5" stroke="#E6E6E6"/>
<path d="M25.0126 15.0358C24.1654 11.8164 21.2707 12.5648 19.9293 13.3414C16.1167 8.68155 12.516 11.8586 11.6687 15.2477C6.79716 17.5776 9.33927 22.449 13.3637 21.3901C13.3636 26.0497 17.5996 24.9907 18.8702 23.0846C22.0476 25.8379 23.7418 23.1552 24.3772 21.3901C25.6484 22.449 28.8256 23.508 27.978 19.0603C30.52 16.3066 27.1311 13.9767 25.0126 15.0358Z" stroke="#F0F0F0" stroke-width="0.7189"/>
<path d="M27.4531 25.9063C27.4531 26.7606 26.7606 27.4531 25.9063 27.4531C25.052 27.4531 24.3594 26.7606 24.3594 25.9063C24.3594 25.052 25.052 24.3594 25.9063 24.3594C26.7606 24.3594 27.4531 25.052 27.4531 25.9063Z" stroke="#F0F0F0" stroke-width="0.7189"/>
<path d="M29.6059 29.4827C29.6059 30.103 29.103 30.6059 28.4827 30.6059C27.8623 30.6059 27.3594 30.103 27.3594 29.4827C27.3594 28.8623 27.8623 28.3594 28.4827 28.3594C29.103 28.3594 29.6059 28.8623 29.6059 29.4827Z" stroke="#F0F0F0" stroke-width="0.7189"/>
</svg>
