<svg width="24" height="24" viewBox="0 0 24 24" fill="none" xmlns="http://www.w3.org/2000/svg">
<rect x="0.5" y="0.5" width="23" height="23" rx="11.5" stroke="#1B1B1B"/>
<path d="M16.7992 9.12039C16.7992 9.30462 16.7323 9.48894 16.5983 9.62934L11.1126 15.3893C10.9792 15.5306 10.8035 15.6004 10.6278 15.6004C10.4521 15.6004 10.2768 15.5301 10.1431 15.3895L7.40022 12.5095C7.26629 12.3694 7.19922 12.1849 7.19922 12.0004C7.19922 11.5891 7.51958 11.2804 7.88493 11.2804C8.06039 11.2804 8.23593 11.3507 8.36965 11.4913L10.6278 13.8634L15.6292 8.61189C15.7621 8.47082 15.9378 8.40039 16.1135 8.40039C16.4799 8.40039 16.7992 8.70864 16.7992 9.12039Z" fill="#1B1B1B"/>
</svg>
