<svg width="20" height="21" viewBox="0 0 20 21" fill="none" xmlns="http://www.w3.org/2000/svg">
<path d="M8.33594 2.16602C11.9468 2.16602 19.1693 2.99935 19.1693 10.4993C19.1693 17.9993 11.9468 18.8327 8.33594 18.8327" fill="url(#paint0_linear_1960_8747)"/>
<path d="M1.04297 10.4993C1.04297 14.9969 4.50405 18.6243 8.7513 18.6243C12.9986 18.6243 16.4596 14.9969 16.4596 10.4993C16.4596 6.00184 12.9986 2.37435 8.7513 2.37435C4.50405 2.37435 1.04297 6.00184 1.04297 10.4993Z" fill="url(#paint1_linear_1960_8747)" stroke="#DEA900" stroke-width="0.416667" stroke-linecap="round" stroke-linejoin="round"/>
<path d="M1.80078 10.5C1.80078 14.5159 4.91697 17.7656 8.75391 17.7656C12.5908 17.7656 15.707 14.5159 15.707 10.5C15.707 6.48407 12.5908 3.23438 8.75391 3.23438C4.91697 3.23438 1.80078 6.48407 1.80078 10.5Z" fill="url(#paint2_linear_1960_8747)" stroke="#DEA900" stroke-width="0.15625" stroke-linecap="round" stroke-linejoin="round"/>
<path d="M16.9766 10.1875L18.8646 10.1875" stroke="#DAAD1F" stroke-width="0.3125" stroke-linecap="round"/>
<path d="M16.6172 8L18.5768 8" stroke="#FED75C" stroke-width="0.3125" stroke-linecap="round"/>
<path d="M16.6719 12.6875H18.6283" stroke="#D6A919" stroke-width="0.3125" stroke-linecap="round"/>
<path d="M15.4492 15.502L17.2168 15.502" stroke="#BD8F00" stroke-width="0.3125" stroke-linecap="round"/>
<path d="M15.4648 5.50781L17.265 5.50781" stroke="#E9BF39" stroke-width="0.3125" stroke-linecap="round"/>
<g filter="url(#filter0_di_1960_8747)">
<path d="M7.10745 5.812C7.64009 5.72936 8.20432 6.35644 8.36682 7.22172C8.52932 8.08214 8.23592 8.85019 7.70328 8.93769C7.17516 9.02519 6.60641 8.39811 6.43939 7.53283C6.27238 6.67242 6.57481 5.90436 7.10745 5.812ZM10.3349 5.812C10.872 5.90436 11.1699 6.67242 11.012 7.53283C10.8404 8.39811 10.2762 9.02519 9.74356 8.93769C9.20641 8.85019 8.913 8.08214 9.08002 7.22172C9.24252 6.35644 9.80675 5.72936 10.3349 5.812ZM4.69252 8.04811C5.2071 7.80992 5.90675 8.24256 6.27238 8.99603C6.61543 9.76408 6.49807 10.571 5.988 10.8092C5.47793 11.0474 4.78279 10.6196 4.4262 9.85644C4.0696 9.09325 4.19599 8.28144 4.69252 8.04811ZM12.8175 8.04811C13.314 8.28144 13.4404 9.09325 13.0838 9.85644C12.7272 10.6196 12.0321 11.0474 11.522 10.8092C11.012 10.571 10.8946 9.76408 11.2377 8.99603C11.6033 8.24256 12.3029 7.80992 12.8175 8.04811ZM12.0637 13.2884C12.0818 13.7453 11.7568 14.2509 11.3686 14.4405C10.5606 14.8391 9.60363 14.0127 8.70536 14.0127C7.8071 14.0127 6.84113 14.8731 6.04668 14.4405C5.59529 14.2023 5.28384 13.5703 5.34252 13.0453C5.42377 12.321 6.23175 11.9321 6.71023 11.4023C7.34668 10.7169 7.79807 9.42867 8.70536 9.42867C9.60814 9.42867 10.0866 10.6974 10.696 11.4023C11.197 11.9953 12.0321 12.496 12.0637 13.2884Z" fill="url(#paint3_linear_1960_8747)"/>
</g>
<defs>
<filter id="filter0_di_1960_8747" x="4.06641" y="5.80469" width="9.22266" height="9.07031" filterUnits="userSpaceOnUse" color-interpolation-filters="sRGB">
<feFlood flood-opacity="0" result="BackgroundImageFix"/>
<feColorMatrix in="SourceAlpha" type="matrix" values="0 0 0 0 0 0 0 0 0 0 0 0 0 0 0 0 0 0 127 0" result="hardAlpha"/>
<feOffset dx="-0.15625" dy="0.3125"/>
<feComposite in2="hardAlpha" operator="out"/>
<feColorMatrix type="matrix" values="0 0 0 0 0.741667 0 0 0 0 0.562401 0 0 0 0 0 0 0 0 0.5 0"/>
<feBlend mode="normal" in2="BackgroundImageFix" result="effect1_dropShadow_1960_8747"/>
<feBlend mode="normal" in="SourceGraphic" in2="effect1_dropShadow_1960_8747" result="shape"/>
<feColorMatrix in="SourceAlpha" type="matrix" values="0 0 0 0 0 0 0 0 0 0 0 0 0 0 0 0 0 0 127 0" result="hardAlpha"/>
<feOffset dx="-0.3125" dy="0.15625"/>
<feComposite in2="hardAlpha" operator="arithmetic" k2="-1" k3="1"/>
<feColorMatrix type="matrix" values="0 0 0 0 1 0 0 0 0 0.8625 0 0 0 0 0.375 0 0 0 0.5 0"/>
<feBlend mode="normal" in2="shape" result="effect2_innerShadow_1960_8747"/>
</filter>
<linearGradient id="paint0_linear_1960_8747" x1="13.7526" y1="2.16602" x2="13.7526" y2="18.8327" gradientUnits="userSpaceOnUse">
<stop stop-color="#C89800"/>
<stop offset="0.278816" stop-color="#FFD85F"/>
<stop offset="0.661519" stop-color="#C89800"/>
<stop offset="1" stop-color="#9C7700"/>
</linearGradient>
<linearGradient id="paint1_linear_1960_8747" x1="12.5013" y1="4.66602" x2="5.41797" y2="16.7493" gradientUnits="userSpaceOnUse">
<stop stop-color="#FFC200"/>
<stop offset="1" stop-color="#C89800"/>
</linearGradient>
<linearGradient id="paint2_linear_1960_8747" x1="12.0845" y1="5.35938" x2="5.86622" y2="16.0502" gradientUnits="userSpaceOnUse">
<stop stop-color="#FFC200"/>
<stop offset="1" stop-color="#C89800"/>
</linearGradient>
<linearGradient id="paint3_linear_1960_8747" x1="8.75502" y1="5.80469" x2="8.75502" y2="14.5621" gradientUnits="userSpaceOnUse">
<stop stop-color="#FFDC6B"/>
<stop offset="1" stop-color="#FFC200"/>
</linearGradient>
</defs>
</svg>
