<svg width="48" height="48" viewBox="0 0 48 48" fill="none" xmlns="http://www.w3.org/2000/svg">
<g id="Frame">
<rect x="1" y="1" width="46" height="46" rx="23" stroke="#0BA81B" stroke-width="2"/>
<path id="Vector" d="M33.5984 18.2398C33.5984 18.6083 33.4645 18.9769 33.1967 19.2577L22.2252 30.7777C21.9584 31.0603 21.607 31.1998 21.2556 31.1998C20.9042 31.1998 20.5536 31.0592 20.2862 30.7779L14.8004 25.0179C14.5326 24.7378 14.3984 24.3688 14.3984 23.9998C14.3984 23.1772 15.0392 22.5598 15.7699 22.5598C16.1208 22.5598 16.4719 22.7004 16.7393 22.9817L21.2556 27.7258L31.2584 17.2228C31.5242 16.9407 31.8756 16.7998 32.227 16.7998C32.9599 16.7998 33.5984 17.4163 33.5984 18.2398Z" fill="#0BA81B"/>
</g>
</svg>
