<svg width="10" height="10" viewBox="0 0 10 10" fill="none" xmlns="http://www.w3.org/2000/svg">
<path d="M0.539012 0.509715C0.799362 0.249366 1.22147 0.249366 1.48182 0.509715L5.01042 4.03831L8.53901 0.509715C8.79936 0.249366 9.22147 0.249366 9.48182 0.509715C9.74217 0.770065 9.74217 1.19217 9.48182 1.45252L5.95323 4.98112L9.48182 8.50972C9.74217 8.77007 9.74217 9.19217 9.48182 9.45252C9.22147 9.71287 8.79936 9.71287 8.53901 9.45252L5.01042 5.92393L1.48182 9.45252C1.22147 9.71287 0.799362 9.71287 0.539012 9.45252C0.278663 9.19217 0.278663 8.77007 0.539012 8.50972L4.06761 4.98112L0.539012 1.45252C0.278663 1.19217 0.278663 0.770065 0.539012 0.509715Z" fill="#1B1B1B"/>
</svg>
