<svg xmlns="http://www.w3.org/2000/svg" width="21" height="20" viewBox="0 0 21 20" fill="none">
    <path d="M0.0546875 6.25C0.0546875 9.28554 2.21874 11.8156 5.08823 12.3817C5.17135 11.4653 5.40664 10.5928 5.76863 9.78967C4.67296 9.42048 3.96981 8.58028 3.80339 7.38857H3.17969V6.85562H3.76181V6.31298C3.76181 6.25484 3.76181 6.19671 3.76701 6.14341H3.17969V5.61047H3.81898C4.09965 4.05039 5.32106 3.125 7.15578 3.125C7.55079 3.125 7.89382 3.16376 8.17969 3.23159V4.14729C7.90422 4.07946 7.56638 4.04554 7.16098 4.04554C6.01233 4.04554 5.2379 4.62694 4.99362 5.61047H7.38967V6.14341H4.91565C4.91046 6.20155 4.91046 6.26453 4.91046 6.32752V6.85562H7.38967V7.38857H4.96763C5.11509 8.14115 5.55279 8.6768 6.22324 8.92464C7.52575 6.77211 9.79914 5.27273 12.4364 5.03355C11.8703 2.16405 9.34023 0 6.30469 0C2.85291 0 0.0546875 2.79822 0.0546875 6.25Z" fill="#000"/>
    <path fill-rule="evenodd" clip-rule="evenodd" d="M20.0537 13.1743C20.0537 16.944 16.9977 20 13.228 20C9.45831 20 6.40234 16.944 6.40234 13.1743C6.40234 9.4046 9.45831 6.34863 13.228 6.34863C16.9977 6.34863 20.0537 9.4046 20.0537 13.1743ZM16.9767 11.5141V12.2191C16.9767 12.3558 16.9201 12.4458 16.8067 12.4891L16.0867 12.7941V16.6741H14.8517V13.2241L14.0117 13.5691V12.8391C14.0117 12.7258 14.0617 12.6458 14.1617 12.5991L14.8517 12.3041V9.24409H16.0867V11.8691L16.9767 11.5141ZM13.4666 12.3094C13.4966 12.226 13.5116 12.141 13.5116 12.0544V11.5444H9.62156V12.4894H12.0966L9.63656 15.7344C9.58323 15.8044 9.54323 15.8794 9.51656 15.9594C9.4899 16.036 9.47656 16.1027 9.47656 16.1594V16.6744H13.4366V15.7244H10.9116L13.3466 12.5144C13.3966 12.461 13.4366 12.3927 13.4666 12.3094Z" fill="#000"/>
</svg>