<svg xmlns="http://www.w3.org/2000/svg" width="16" height="17" viewBox="0 0 16 17" fill="none">
  <path d="M7.33203 3.1665H2.66536C2.31174 3.1665 1.9726 3.30698 1.72256 3.55703C1.47251 3.80708 1.33203 4.14622 1.33203 4.49984V13.8332C1.33203 14.1868 1.47251 14.5259 1.72256 14.776C1.9726 15.026 2.31174 15.1665 2.66536 15.1665H11.9987C12.3523 15.1665 12.6915 15.026 12.9415 14.776C13.1916 14.5259 13.332 14.1868 13.332 13.8332V9.1665" stroke="#999999" stroke-width="0.8" stroke-linecap="round" stroke-linejoin="round"/>
  <path d="M12.332 2.16665C12.5972 1.90144 12.957 1.75244 13.332 1.75244C13.7071 1.75244 14.0668 1.90144 14.332 2.16665C14.5972 2.43187 14.7462 2.79158 14.7462 3.16665C14.7462 3.54173 14.5972 3.90144 14.332 4.16665L7.9987 10.5L5.33203 11.1667L5.9987 8.49999L12.332 2.16665Z" stroke="#999999" stroke-width="0.8" stroke-linecap="round" stroke-linejoin="round"/>
</svg>