<svg width="40" height="40" viewBox="0 0 40 40" fill="none" xmlns="http://www.w3.org/2000/svg">
<rect x="0.5" y="0.5" width="39" height="39" rx="19.5" stroke="#E6E6E6"/>
<path d="M12.5 12.5C11.1193 12.5 10 13.6193 10 15V25L10 25.0128C10.0069 26.3876 11.1236 27.5 12.5 27.5H19.375C19.7202 27.5 20 27.2202 20 26.875C20 26.5298 19.7202 26.25 19.375 26.25H12.5C11.9214 26.25 11.4347 25.8569 11.2922 25.3233L18.3427 20.9845L20 21.9789L28.75 16.7289V20.625C28.75 20.9702 29.0298 21.25 29.375 21.25C29.7202 21.25 30 20.9702 30 20.625V15C30 13.6193 28.8807 12.5 27.5 12.5H12.5ZM17.1351 20.2599L11.25 23.8815V16.7289L17.1351 20.2599ZM11.25 15.2711V15C11.25 14.3096 11.8096 13.75 12.5 13.75H27.5C28.1904 13.75 28.75 14.3096 28.75 15V15.2711L20 20.5211L11.25 15.2711Z" fill="#F0F0F0"/>
<path d="M27.8084 27.8357C29.0709 27.8357 29.7923 26.7645 29.7923 25.3053V25.0429C29.7923 23.0372 28.3003 21.25 25.6496 21.25H25.6059C23.0262 21.25 21.25 22.9497 21.25 25.5403V25.8081C21.25 28.5244 23.0481 30 25.4474 30H25.502C26.2453 30 26.7755 29.9071 27.0487 29.7814V28.8687C26.7427 29.0053 26.2071 29.0928 25.5731 29.0928H25.5184C23.8515 29.0928 22.3048 28.109 22.3048 25.7753V25.5785C22.3048 23.5072 23.6274 22.1736 25.6059 22.1736H25.6551C27.5734 22.1736 28.7594 23.4853 28.7594 25.0812V25.2288C28.7594 26.4475 28.3549 26.9667 27.9614 26.9667C27.6718 26.9667 27.4477 26.7809 27.4477 26.4421V23.7039H26.3164V24.4144H26.2781C26.1743 24.0428 25.819 23.6274 25.0867 23.6274C24.1138 23.6274 23.5126 24.3215 23.5126 25.3763V26.0376C23.5126 27.1526 24.1248 27.8303 25.0867 27.8303C25.6769 27.8303 26.2071 27.5461 26.3546 27.0269H26.4093C26.5568 27.5515 27.1799 27.8357 27.8084 27.8357ZM24.7423 25.8518V25.5676C24.7423 24.8844 25.0265 24.5784 25.4583 24.5784C25.8299 24.5784 26.1743 24.8189 26.1743 25.4638V25.9229C26.1743 26.6388 25.8573 26.852 25.4692 26.852C25.0265 26.852 24.7423 26.5842 24.7423 25.8518Z" fill="#F0F0F0"/>
</svg>
