<svg width="21" height="20" viewBox="0 0 21 20" fill="none" xmlns="http://www.w3.org/2000/svg">
<g id="Icons/Passwordshow">
<g id="Vector">
<path d="M20.5 10C20.5 10 16.75 3.125 10.5 3.125C4.25 3.125 0.5 10 0.5 10C0.5 10 4.25 16.875 10.5 16.875C16.75 16.875 20.5 10 20.5 10ZM1.96587 10C2.03703 9.89151 2.11818 9.77097 2.20909 9.64052C2.6277 9.03991 3.24539 8.24113 4.04013 7.44638C5.65129 5.83523 7.85077 4.375 10.5 4.375C13.1492 4.375 15.3487 5.83523 16.9599 7.44638C17.7546 8.24113 18.3723 9.03991 18.7909 9.64052C18.8818 9.77097 18.963 9.89151 19.0341 10C18.963 10.1085 18.8818 10.229 18.7909 10.3595C18.3723 10.9601 17.7546 11.7589 16.9599 12.5536C15.3487 14.1648 13.1492 15.625 10.5 15.625C7.85077 15.625 5.65129 14.1648 4.04013 12.5536C3.24539 11.7589 2.6277 10.9601 2.20909 10.3595C2.11818 10.229 2.03703 10.1085 1.96587 10Z" fill="#A5A5A5"/>
<path d="M10.5 6.875C8.77411 6.875 7.375 8.27411 7.375 10C7.375 11.7259 8.77411 13.125 10.5 13.125C12.2259 13.125 13.625 11.7259 13.625 10C13.625 8.27411 12.2259 6.875 10.5 6.875ZM6.125 10C6.125 7.58375 8.08375 5.625 10.5 5.625C12.9162 5.625 14.875 7.58375 14.875 10C14.875 12.4162 12.9162 14.375 10.5 14.375C8.08375 14.375 6.125 12.4162 6.125 10Z" fill="#A5A5A5"/>
</g>
</g>
</svg>
