<svg width="48" height="48" viewBox="0 0 48 48" fill="none" xmlns="http://www.w3.org/2000/svg">
<rect x="1" y="1" width="46" height="46" rx="23" stroke="#FE0000" stroke-width="2"/>
<path d="M16.3557 16.3557C16.8299 15.8814 17.5987 15.8814 18.0729 16.3557L24.5 22.7827L30.9271 16.3557C31.4013 15.8814 32.1701 15.8814 32.6443 16.3557C33.1186 16.8299 33.1186 17.5987 32.6443 18.0729L26.2173 24.5L32.6443 30.9271C33.1186 31.4013 33.1186 32.1701 32.6443 32.6443C32.1701 33.1186 31.4013 33.1186 30.9271 32.6443L24.5 26.2173L18.0729 32.6443C17.5987 33.1186 16.8299 33.1186 16.3557 32.6443C15.8814 32.1701 15.8814 31.4013 16.3557 30.9271L22.7827 24.5L16.3557 18.0729C15.8814 17.5987 15.8814 16.8299 16.3557 16.3557Z" fill="#FE0000"/>
</svg>
