<svg width="40" height="40" viewBox="0 0 40 40" fill="none" xmlns="http://www.w3.org/2000/svg">
<rect x="0.5" y="0.5" width="39" height="39" rx="19.5" stroke="#E6E6E6"/>
<path d="M25.5667 11.2334H14.4333C13.5891 11.2334 12.7794 11.5688 12.1824 12.1658C11.5854 12.7628 11.25 13.5725 11.25 14.4167V22.3667C11.25 23.211 11.5854 24.0207 12.1824 24.6177C12.7794 25.2147 13.5891 25.5501 14.4333 25.5501H17.6167L20 27.9334L22.3833 25.5501H25.5667C26.4109 25.5501 27.2206 25.2147 27.8176 24.6177C28.4146 24.0207 28.75 23.211 28.75 22.3667V14.4167C28.75 13.5725 28.4146 12.7628 27.8176 12.1658C27.2206 11.5688 26.4109 11.2334 25.5667 11.2334Z" stroke="#F0F0F0" stroke-width="0.72" stroke-miterlimit="10"/>
<path d="M20 20.0003V19.0503C19.9997 18.8413 20.0407 18.6342 20.1208 18.4412C20.2009 18.2481 20.3185 18.0728 20.4667 17.9253L21.125 17.267C21.4228 16.9682 21.5905 16.5638 21.5917 16.142V16.0003C21.5895 15.5796 21.4208 15.1769 21.1225 14.8802C20.8243 14.5835 20.4207 14.417 20 14.417C19.5793 14.417 19.1757 14.5835 18.8774 14.8802C18.5792 15.1769 18.4105 15.5796 18.4083 16.0003" stroke="#F0F0F0" stroke-miterlimit="10"/>
<path d="M19.208 21.5752H20.7913" stroke="#F0F0F0" stroke-miterlimit="10"/>
</svg>
