<svg width="25" height="25" viewBox="0 0 25 25" fill="none" xmlns="http://www.w3.org/2000/svg">
<g id="gift">
<path id="Vector (Stroke)" d="M5 4.25C5 2.17893 6.67893 0.5 8.75 0.5C10.8211 0.5 12.5 2.17893 12.5 4.25C12.5 2.17893 14.1789 0.5 16.25 0.5C18.3211 0.5 20 2.17893 20 4.25L20 4.25835C20.0001 4.36314 20.0002 4.6635 19.9433 5H23C23.8284 5 24.5 5.67157 24.5 6.5V9.5C24.5 10.3284 23.8284 11 23 11V22.25C23 23.4926 21.9926 24.5 20.75 24.5H4.25C3.00736 24.5 2 23.4926 2 22.25L2 11C1.17157 11 0.5 10.3284 0.5 9.5V6.5C0.5 5.67157 1.17157 5 2 5H5.05674C4.9998 4.6635 4.99995 4.36314 5 4.25835C5 4.25541 5 4.25263 5 4.25ZM6.60199 5H11V4.25C11 3.00736 9.99264 2 8.75 2C7.50736 2 6.5 3.00736 6.5 4.25C6.5 4.37713 6.50292 4.66026 6.56732 4.89641C6.57878 4.93842 6.59066 4.9728 6.60199 5ZM14 5H18.398C18.4093 4.9728 18.4212 4.93842 18.4327 4.89641C18.4971 4.66026 18.5 4.37713 18.5 4.25C18.5 3.00736 17.4926 2 16.25 2C15.0074 2 14 3.00736 14 4.25V5ZM2 6.5V9.5H11V6.5H2ZM14 6.5V9.5H23V6.5H14ZM21.5 11H14V23H20.75C21.1642 23 21.5 22.6642 21.5 22.25V11ZM11 23V11H3.5V22.25C3.5 22.6642 3.83579 23 4.25 23H11Z" fill="#ECB8BB"/>
</g>
</svg>
