<svg width="20" height="21" viewBox="0 0 20 21" fill="none" xmlns="http://www.w3.org/2000/svg">
<g id="Frame">
<path id="Vector (Stroke)" fill-rule="evenodd" clip-rule="evenodd" d="M3.125 7.21875C3.03871 7.21875 2.96875 7.28871 2.96875 7.375V9.875C2.96875 9.96129 3.03871 10.0312 3.125 10.0312H16.875C16.9613 10.0312 17.0312 9.96129 17.0312 9.875V7.375C17.0312 7.28871 16.9613 7.21875 16.875 7.21875H3.125ZM2.03125 7.375C2.03125 6.77094 2.52094 6.28125 3.125 6.28125H16.875C17.4791 6.28125 17.9688 6.77094 17.9688 7.375V9.875C17.9688 10.4791 17.4791 10.9688 16.875 10.9688H3.125C2.52094 10.9688 2.03125 10.4791 2.03125 9.875V7.375Z" fill="#585858"/>
<path id="Vector (Stroke)_2" fill-rule="evenodd" clip-rule="evenodd" d="M3.75 10.0312C4.00888 10.0312 4.21875 10.2411 4.21875 10.5V16.125C4.21875 16.1664 4.23521 16.2062 4.26451 16.2355C4.29382 16.2648 4.33356 16.2812 4.375 16.2812H15.625C15.6664 16.2812 15.7062 16.2648 15.7355 16.2355C15.7648 16.2062 15.7812 16.1664 15.7812 16.125V10.5C15.7812 10.2411 15.9911 10.0312 16.25 10.0312C16.5089 10.0312 16.7188 10.2411 16.7188 10.5V16.125C16.7188 16.4151 16.6035 16.6933 16.3984 16.8984C16.1933 17.1035 15.9151 17.2188 15.625 17.2188H4.375C4.08492 17.2188 3.80672 17.1035 3.6016 16.8984C3.39648 16.6933 3.28125 16.4151 3.28125 16.125V10.5C3.28125 10.2411 3.49112 10.0312 3.75 10.0312Z" fill="#585858"/>
<path id="Vector (Stroke)_3" fill-rule="evenodd" clip-rule="evenodd" d="M10 6.28125C10.2589 6.28125 10.4688 6.49112 10.4688 6.75V16.75C10.4688 17.0089 10.2589 17.2188 10 17.2188C9.74112 17.2188 9.53125 17.0089 9.53125 16.75V6.75C9.53125 6.49112 9.74112 6.28125 10 6.28125Z" fill="#585858"/>
<path id="Vector (Stroke)_4" fill-rule="evenodd" clip-rule="evenodd" d="M11.215 3.54199C11.0687 3.68997 10.9319 3.94295 10.8173 4.28781C10.7051 4.6253 10.6273 5.00997 10.5744 5.38099C10.5273 5.71096 10.5011 6.02114 10.4866 6.26373C10.7292 6.2492 11.0394 6.223 11.3693 6.17592C11.7404 6.12298 12.125 6.04522 12.4625 5.93306C12.8074 5.81844 13.0604 5.68162 13.2084 5.5353C13.4722 5.27104 13.6204 4.91285 13.6204 4.53939C13.6204 4.16556 13.4719 3.80705 13.2076 3.54272C12.9433 3.27838 12.5848 3.12988 12.2109 3.12988C11.8375 3.12988 11.4793 3.27811 11.215 3.54199ZM10 6.75032C9.53125 6.75032 9.53125 6.75024 9.53125 6.75014L9.53125 6.74923L9.53125 6.74716L9.53128 6.74019C9.53132 6.7343 9.53138 6.72592 9.53149 6.71521C9.53173 6.69379 9.53219 6.66299 9.5331 6.62389C9.53492 6.54573 9.53853 6.43418 9.54569 6.29796C9.55999 6.02624 9.58862 5.65284 9.6463 5.24857C9.70372 4.84615 9.79148 4.40172 9.92761 3.99213C10.0611 3.59049 10.2551 3.1787 10.5499 2.88127L10.5514 2.8798C10.9915 2.43966 11.5885 2.19238 12.2109 2.19238C12.8334 2.19238 13.4304 2.43966 13.8705 2.8798C14.3107 3.31995 14.5579 3.91692 14.5579 4.53939C14.5579 5.16185 14.3107 5.75882 13.8705 6.19897L13.8691 6.20042C13.5716 6.49524 13.1598 6.68923 12.7582 6.82271C12.3486 6.95884 11.9042 7.04661 11.5018 7.10402C11.0975 7.1617 10.7241 7.19034 10.4524 7.20463C10.3161 7.2118 10.2046 7.2154 10.1264 7.21722C10.0873 7.21813 10.0565 7.21859 10.0351 7.21883C10.0244 7.21895 10.016 7.21901 10.0101 7.21904L10.0032 7.21907L10.0011 7.21907L10.0002 7.21907C10.0001 7.21907 10 7.21907 10 6.75032ZM10 6.75032V7.21907C9.87568 7.21907 9.75645 7.16969 9.66854 7.08178C9.58064 6.99387 9.53125 6.87464 9.53125 6.75032H10Z" fill="#585858"/>
<path id="Vector (Stroke)_5" fill-rule="evenodd" clip-rule="evenodd" d="M6.12492 2.8798C6.56507 2.43966 7.16204 2.19238 7.7845 2.19238C8.40697 2.19238 9.00393 2.43966 9.44408 2.8798L9.44554 2.88127C9.74036 3.1787 9.93434 3.59049 10.0678 3.99213C10.204 4.40172 10.2917 4.84615 10.3491 5.24857C10.4068 5.65284 10.4355 6.02624 10.4497 6.29796C10.4569 6.43418 10.4605 6.54573 10.4623 6.62389C10.4632 6.66299 10.4637 6.69379 10.4639 6.71521C10.4641 6.72592 10.4641 6.7343 10.4642 6.74019L10.4642 6.74716L10.4642 6.74923L10.4642 6.75014C10.4642 6.75024 10.4642 6.75032 9.99544 6.75032C9.99544 7.21907 9.99535 7.21907 9.99526 7.21907L9.99434 7.21907L9.99228 7.21907L9.98531 7.21904C9.97941 7.21901 9.97104 7.21895 9.96033 7.21883C9.93891 7.21859 9.9081 7.21813 9.869 7.21722C9.79084 7.2154 9.6793 7.2118 9.54308 7.20463C9.27135 7.19034 8.89796 7.1617 8.49368 7.10402C8.09126 7.04661 7.64683 6.95884 7.23725 6.82271C6.83561 6.68923 6.42381 6.49524 6.12638 6.20042L6.12492 6.19897C5.68477 5.75882 5.4375 5.16185 5.4375 4.53939C5.4375 3.91692 5.68477 3.31995 6.12492 2.8798ZM9.99544 6.75032V7.21907C10.1198 7.21907 10.239 7.16969 10.3269 7.08178C10.4148 6.99387 10.4642 6.87464 10.4642 6.75032H9.99544ZM9.50885 6.26373C9.49432 6.02114 9.46812 5.71096 9.42104 5.38099C9.3681 5.00997 9.29034 4.6253 9.17818 4.28781C9.06356 3.94294 8.92674 3.68996 8.78042 3.54197C8.51616 3.2781 8.15797 3.12988 7.7845 3.12988C7.41068 3.12988 7.05217 3.27838 6.78783 3.54272C6.5235 3.80705 6.375 4.16556 6.375 4.53939C6.375 4.91286 6.52322 5.27105 6.78709 5.53531C6.93507 5.68163 7.18806 5.81844 7.53293 5.93306C7.87041 6.04522 8.25508 6.12298 8.6261 6.17592C8.95608 6.223 9.26626 6.2492 9.50885 6.26373Z" fill="#585858"/>
</g>
</svg>
