
<svg width="20" height="20" viewBox="0 0 21 20" fill="none" xmlns="http://www.w3.org/2000/svg">
<path d="M18.362 10.0001C18.362 11.0944 18.1464 12.1781 17.7276 13.1891C17.3089 14.2002 16.695 15.1188 15.9212 15.8926C15.1474 16.6665 14.2287 17.2803 13.2177 17.6991C12.2066 18.1179 11.123 18.3334 10.0286 18.3334C8.9343 18.3334 7.85066 18.1179 6.83962 17.6991C5.82857 17.2803 4.90991 16.6665 4.13609 15.8926C3.36227 15.1188 2.74844 14.2002 2.32965 13.1891C1.91086 12.1781 1.69531 11.0944 1.69531 10.0001C1.69531 8.90573 1.91086 7.8221 2.32965 6.81105C2.74844 5.80001 3.36227 4.88135 4.13609 4.10752C4.90991 3.3337 5.82857 2.71987 6.83962 2.30108C7.85066 1.8823 8.9343 1.66675 10.0286 1.66675C11.123 1.66675 12.2066 1.8823 13.2177 2.30109C14.2287 2.71988 15.1474 3.3337 15.9212 4.10753C16.695 4.88135 17.3089 5.80001 17.7276 6.81105C18.1464 7.8221 18.362 8.90573 18.362 10.0001L18.362 10.0001Z" stroke="#1B1B1B" stroke-width="1.25"/>
<path d="M13.362 10.0001C13.362 11.0944 13.2758 12.1781 13.1082 13.1891C12.9407 14.2002 12.6952 15.1188 12.3857 15.8926C12.0761 16.6665 11.7087 17.2803 11.3043 17.6991C10.8998 18.1179 10.4664 18.3334 10.0286 18.3334C9.59091 18.3334 9.15745 18.1179 8.75303 17.6991C8.34862 17.2803 7.98115 16.6665 7.67162 15.8926C7.36209 15.1188 7.11656 14.2002 6.94905 13.1891C6.78153 12.1781 6.69531 11.0944 6.69531 10.0001C6.69531 8.90573 6.78153 7.8221 6.94905 6.81105C7.11656 5.80001 7.36209 4.88135 7.67162 4.10752C7.98115 3.3337 8.34862 2.71987 8.75303 2.30108C9.15745 1.8823 9.59091 1.66675 10.0286 1.66675C10.4664 1.66675 10.8998 1.8823 11.3043 2.30109C11.7087 2.71988 12.0761 3.3337 12.3857 4.10753C12.6952 4.88135 12.9407 5.80001 13.1082 6.81105C13.2758 7.8221 13.362 8.90573 13.362 10.0001L13.362 10.0001Z" stroke="#1B1B1B" stroke-width="1.25"/>
<path d="M1.69531 10H18.362" stroke="#1B1B1B" stroke-width="1.25" stroke-linecap="round"/>
</svg>
