<svg width="24" height="24" viewBox="0 0 24 24" fill="none" xmlns="http://www.w3.org/2000/svg">
<path d="M21.3036 3.76815C20.766 3.20759 20.1278 2.76292 19.4253 2.45954C18.7228 2.15615 17.9699 2 17.2095 2C16.4491 2 15.6961 2.15615 14.9936 2.45954C14.2912 2.76292 13.6529 3.20759 13.1153 3.76815L11.9997 4.93095L10.8841 3.76815C9.79827 2.6364 8.32556 2.00059 6.78997 2.00059C5.25437 2.00059 3.78167 2.6364 2.69584 3.76815C1.61001 4.89989 1 6.43487 1 8.03541C1 9.63594 1.61001 11.1709 2.69584 12.3027L3.81147 13.4655L11.9997 22L20.188 13.4655L21.3036 12.3027C21.8414 11.7424 22.268 11.0771 22.5591 10.3449C22.8502 9.61276 23 8.82796 23 8.03541C23 7.24285 22.8502 6.45806 22.5591 5.72587C22.268 4.99368 21.8414 4.32844 21.3036 3.76815Z" stroke="#1B1B1B" stroke-width="1.5" stroke-linecap="round" stroke-linejoin="round"/>
</svg>
