<svg width="40" height="40" viewBox="0 0 40 40" fill="none" xmlns="http://www.w3.org/2000/svg">
<circle cx="20" cy="20" r="19.5" stroke="#808080"/>
<path d="M19.5262 32.9991C24.7801 32.9991 29.0543 28.725 29.0543 23.4711C29.0543 22.3678 28.4774 20.6634 27.6707 18.9265C27.6095 18.794 27.5464 18.6615 27.4824 18.5281L26.5711 19.4772C26.6288 19.5971 26.6847 19.7152 26.7388 19.8314C27.4355 21.3385 27.7888 22.5616 27.7888 23.4711C27.7888 28.0264 24.0825 31.7318 19.528 31.7318C14.9736 31.7318 11.2673 28.0255 11.2673 23.4711C11.2673 19.4862 17.692 11.2534 19.528 8.98204C20.4988 10.1817 22.9099 13.2634 24.8288 16.309C24.9271 16.465 25.0244 16.6209 25.12 16.7768L26.0213 15.8728C25.9528 15.7601 25.8834 15.6483 25.8131 15.5366C23.2587 11.4472 20.0463 7.61471 20.013 7.57596L19.528 7L19.0431 7.57596C18.6736 8.01491 10 18.3875 10 23.472C10 28.5564 14.2741 33 19.528 33L19.5262 32.9991Z" fill="#808080"/>
<path d="M16.6243 20.8864L15.6914 21.7436L19.4608 25.8464L27.0816 17.8038L26.4345 16.6465L19.4752 23.9897L16.6243 20.8864Z" fill="#808080"/>
</svg>
