<svg width="40" height="40" viewBox="0 0 40 40" fill="none" xmlns="http://www.w3.org/2000/svg">
<circle cx="20" cy="20" r="19.5" stroke="#808080"/>
<path d="M29.7601 23.9627C28.8251 21.2655 25.6937 19.2771 21.9834 19.2771C20.5915 19.2771 19.2401 19.5561 18.0405 20.0866C17.9855 19.9635 17.9238 19.8426 17.8536 19.7255C18.6224 19.107 19.4369 18.2631 20.1873 17.3006C21.0758 16.1605 21.7774 14.9809 22.1633 13.9788C22.6339 12.7567 22.592 11.9277 22.0383 11.5151C21.1322 10.8399 19.4872 11.8971 17.9985 13.4379C18.0214 12.6276 17.9764 11.8516 17.8612 11.1883C17.6294 9.85724 17.1482 9.10366 16.4686 9.01039C15.7807 8.91563 15.1477 9.46925 14.5902 10.6556C14.1326 11.6285 13.7689 12.947 13.5652 14.3661C13.3982 15.5315 13.3563 16.6567 13.4379 17.6095C10.9722 17.6998 9 19.33 9 21.3215C9 23.3129 11.0874 25.0379 13.6529 25.0379C13.7559 25.0379 13.8573 25.0342 13.9588 25.0289C13.9343 25.2311 13.9206 25.4348 13.9206 25.6385C13.9206 26.9152 14.3942 28.1418 15.2911 29.1923C14.0304 29.2184 12.4296 29.3923 12.4296 30.457C12.4296 31.4367 13.0695 31.8933 13.6178 31.9866C13.6712 31.9955 13.7254 32 13.7833 32H21.9841C25.1087 32 27.8214 30.5898 29.1591 28.5343C29.2743 28.5544 29.3986 28.5745 29.5427 28.5969C30.8419 28.6919 32 27.5638 32 26.2787C32 24.9969 31.007 24.0314 29.7609 23.9612L29.7601 23.9627ZM17.6599 15.4151C19.5482 12.9925 21.1284 12.2217 21.3961 12.3269C21.5837 12.5619 21.2398 14.2557 19.3515 16.6776C18.6529 17.5744 17.9017 18.3549 17.2 18.9212C16.8568 18.5988 16.4473 18.3235 15.9866 18.1094C16.3573 17.2842 16.9483 16.3291 17.6599 15.4151ZM14.6055 14.5093C15.0333 11.5256 16.0057 10.0938 16.3199 10.0296C16.6448 10.2079 17.1932 12.0307 16.8439 14.7682C16.8378 14.7765 16.8309 14.7839 16.8248 14.7921C16.0347 15.8061 15.3979 16.8432 14.9944 17.7639C14.832 17.7244 14.665 17.6931 14.4949 17.6677C14.4019 16.7656 14.44 15.6621 14.6055 14.5093ZM13.6529 24.0112C11.6662 24.0112 10.0502 22.8048 10.0502 21.3222C10.0502 19.8397 11.6662 18.6332 13.6529 18.6332C15.6396 18.6332 17.2557 19.8397 17.2557 21.3222C17.2557 22.8048 15.6396 24.0112 13.6529 24.0112ZM22.5 31C19.4051 31 16.8277 30.9748 13.7971 30.9756C13.5995 30.942 13.4928 30.7868 13.4798 30.5152C13.5797 30.4481 14.0015 30.2391 15.4154 30.2183C15.8089 30.2123 16.1529 29.9899 16.3146 29.6385C16.474 29.2908 16.4145 28.8954 16.1605 28.6081C15.3819 27.7277 14.97 26.701 14.97 25.6393C14.97 25.3811 14.9952 25.123 15.044 24.8685C16.9316 24.3947 18.3051 22.9846 18.3051 21.3222C18.3051 21.2498 18.302 21.1782 18.2967 21.1066C19.4041 20.5828 20.6701 20.3045 21.9826 20.3045C25.8492 20.3045 28.9952 22.6981 28.9952 25.6393C28.9952 28.9589 25.3748 30.898 22.5 31ZM29.6625 27.5755C29.9103 26.9644 30.0461 26.3138 30.0461 25.6385C30.0461 25.4363 30.0324 25.2364 30.0095 25.0386C30.5525 25.2006 30.9491 25.6952 30.9491 26.2787C30.9491 26.9808 30.3756 27.5546 29.6632 27.5747L29.6625 27.5755Z" fill="#808080"/>
</svg>
