<svg width="40" height="40" viewBox="0 0 40 40" fill="none" xmlns="http://www.w3.org/2000/svg">
<circle cx="20" cy="20" r="19.5" stroke="#808080"/>
<path d="M15.0179 23.0024C16.0232 23.0024 16.9536 22.6415 17.7317 21.9151C17.866 22.1576 17.988 22.4001 18.0966 22.6415C20.3705 27.7001 19.8297 33.8322 19.8241 33.8931L20.8978 34C20.9157 33.8149 21.1956 30.646 20.5104 26.9185C20.563 26.7127 20.6044 26.4564 20.6503 26.161C20.7186 25.7242 20.7959 25.2288 20.9257 24.8013C20.9996 24.5576 21.0903 24.3139 21.1944 24.0714C21.9871 24.8438 22.9432 25.2288 23.9799 25.2288C25.4297 25.2288 27.0329 24.4829 28.5476 23.0197C31.2469 20.4117 32.5321 14.7635 31.7943 13.675C31.632 13.4347 31.3432 13.3094 30.8304 13.2543C29.2698 13.0865 24.543 13.6382 22.1069 15.9922C20.7768 17.2772 19.9887 18.7301 19.8263 20.1933C19.7088 21.2484 19.9271 22.2599 20.4421 23.1243C20.2271 23.553 20.048 23.9875 19.9126 24.4254C19.6842 23.6714 19.411 22.9151 19.0785 22.176C18.9061 21.7921 18.7023 21.4082 18.4739 21.0266C19.6259 19.2059 19.5957 16.3761 16.8931 13.7658C14.4559 11.4106 9.73024 10.8601 8.16959 11.0279C7.65683 11.083 7.36799 11.2083 7.20565 11.4486C6.46787 12.537 7.75311 18.1852 10.4523 20.7933C11.9671 22.2565 13.5692 23.0024 15.0201 23.0024H15.0179ZM28.4603 21.4772L24.1713 19.9691C24.7546 19.3806 25.3726 18.8209 25.9917 18.2979L29.7008 19.3622C29.3616 20.114 28.9485 20.8461 28.4603 21.4783V21.4772ZM30.9345 14.7393C30.9144 15.4749 30.6513 16.8692 30.1195 18.3312L27.0374 17.4473C28.6495 16.1864 30.1464 15.2244 30.9345 14.7393ZM29.4646 14.3623C28.598 14.9232 27.4494 15.7117 26.2425 16.6657L25.9839 15.0531C27.2277 14.6439 28.5006 14.4359 29.4646 14.3623ZM24.9539 15.4439L25.2763 17.4554C24.8005 17.8588 24.3258 18.2852 23.8634 18.7289L23.588 16.1945C24.0068 15.906 24.4691 15.6565 24.9528 15.4439H24.9539ZM27.6464 22.3599C25.4555 24.3886 23.2242 24.6886 21.7889 23.1231C21.7643 23.0967 21.7441 23.0668 21.7206 23.0404C22.1629 22.2898 22.7215 21.5542 23.3462 20.8484L27.6464 22.3611V22.3599ZM20.8955 20.3186C21.0187 19.2082 21.6053 18.083 22.5972 17.0473L22.8872 19.7232C22.2199 20.4438 21.6076 21.2025 21.097 21.9852C20.9045 21.4668 20.8306 20.9025 20.8955 20.3174V20.3186ZM11.3502 20.1335L15.3504 18.7266C16.0154 19.4519 16.6289 20.2025 17.1428 20.9611C15.7053 22.4496 13.5087 22.1335 11.3513 20.1335H11.3502ZM16.3994 14.8209C18.2131 16.7129 18.4336 18.6243 17.8011 20.0036C17.2861 19.2818 16.6961 18.5715 16.0669 17.8887L16.3994 14.8221V14.8209ZM12.9086 12.7922C13.7942 13.075 14.6686 13.4589 15.4075 13.9681L15.0918 16.8772C14.3741 16.1669 13.6319 15.4956 12.9086 14.8795V12.7911V12.7922ZM11.8305 12.4957V13.9899C10.8879 13.2336 10.0269 12.5968 9.36191 12.1244C10.0482 12.1669 10.9181 12.2819 11.8305 12.4957ZM8.06435 12.56C8.73272 13.0209 9.8881 13.8439 11.1969 14.8979L8.69577 15.5795C8.29386 14.3451 8.0901 13.214 8.06435 12.56ZM12.238 15.7588C12.9948 16.4037 13.7718 17.1094 14.513 17.8519L10.5363 19.2508C9.93624 18.4749 9.45259 17.5496 9.07642 16.6221L12.238 15.76V15.7588Z" fill="#808080"/>
</svg>
