<svg width="40" height="40" viewBox="0 0 40 40" fill="none" xmlns="http://www.w3.org/2000/svg">
<circle cx="20" cy="20" r="19.5" stroke="#808080"/>
<path d="M30.8076 10.1314C29.8134 9.48441 23.721 11.3119 19.9927 14.4423C16.0846 11.1694 10.1607 9.50141 9.19232 10.1314C8.38602 10.6561 8.03448 13.988 8.00303 15.9645C7.96917 18.0827 8.19171 22.0713 10.0688 24.9822C12.178 28.2535 14.9033 30 17.6076 30C18.4341 30 19.259 29.8332 20.0628 29.5004L20.0467 29.5433C20.8312 29.847 21.6254 29.996 22.418 29.996C25.1409 29.996 27.8315 28.2389 29.9311 24.983C31.8082 22.0721 32.0315 18.0835 31.9968 15.9653C31.9654 13.988 31.6139 10.6561 30.8076 10.1322V10.1314ZM20.2652 28.1304C20.0169 27.4065 19.7355 26.6761 19.4275 25.9442L22.2382 19.1799C24.0016 22.8276 23.4477 26.081 20.649 27.9004C20.5216 27.983 20.3934 28.0583 20.2644 28.1304H20.2652ZM18.7873 24.5021C17.8399 22.4648 16.7264 20.4552 15.6121 18.6139L16.6014 13.5192C18.472 14.5653 20.2765 15.9418 21.3674 17.6349C21.4239 17.7232 21.4779 17.8106 21.5319 17.8981L18.7873 24.5021ZM9.17378 17.2633H13.4044C14.2938 18.6446 15.2226 20.1726 16.0999 21.7645H9.87123C9.43583 20.3183 9.23183 18.7483 9.17297 17.2633H9.17378ZM9.60757 11.7977C10.2784 12.6917 11.3927 14.2188 12.653 16.1143H9.15443C9.16814 14.2973 9.37938 12.7143 9.60757 11.7977ZM10.5985 11.2034C11.7015 11.4107 13.5931 12.0042 15.5443 12.9629L14.7259 17.1807C13.0593 14.5499 11.4935 12.3937 10.5993 11.2034H10.5985ZM11.0291 24.3563C10.7404 23.9086 10.4937 23.4227 10.2816 22.9126H16.7175C17.6996 24.7895 18.58 26.7255 19.2138 28.5911C16.3958 29.5077 13.3706 27.9879 11.0283 24.3563H11.0291ZM28.9716 24.3563C26.8422 27.6591 24.0895 29.2389 21.44 28.7474C25.0046 26.2956 25.3618 21.7151 22.3277 17.009C21.9189 16.375 21.4166 15.7775 20.8506 15.2196C24.2661 12.4156 29.1603 11.0917 30.169 11.1241C30.7906 12.3435 31.7493 20.0487 28.9708 24.3571L28.9716 24.3563Z" fill="#808080"/>
</svg>
