<svg width="40" height="40" viewBox="0 0 40 40" fill="none" xmlns="http://www.w3.org/2000/svg">
<circle cx="20" cy="20" r="19.5" stroke="#808080"/>
<path d="M29.4971 28.2008V27.933V27.933V27.933V27.9329V27.9329V27.9329V27.9328V27.9328V27.9328V27.9327V27.9327V27.9326V27.9326V27.9326V27.9325V27.9325V27.9325V27.9324V27.9324V27.9324V27.9323V27.9323V27.9322V27.9322V27.9322V27.9321V27.9321V27.9321V27.932V27.932V27.932V27.9319V27.9319V27.9319V27.9318V27.9318V27.9317V27.9317V27.9317V27.9316V27.9316V27.9316V27.9315V27.9315V27.9315V27.9314V27.9314V27.9314V27.9313V27.9313V27.9312V27.9312V27.9312V27.9311V27.9311V27.9311V27.931V27.931V27.931V27.9309V27.9309V27.9309V27.9308V27.9308V27.9307V27.9307V27.9307V27.9306V27.9306V27.9306V27.9305V27.9305V27.9305V27.9304V27.9304V27.9303V27.9303V27.9303V27.9302V27.9302V27.9302V27.9301V27.9301V27.9301V27.93V27.93V27.93V27.9299V27.9299V27.9298V27.9298V27.9298V27.9297V27.9297V27.9297V27.9296V27.9296V27.9296V27.9295V27.9295V27.9295V27.9294V27.9294V27.9293V27.9293V27.9293V27.9292V27.9292V27.9292V27.9291V27.9291V27.9291V27.929V27.929V27.929V27.9289V27.9289V27.9289V27.9288V27.9288V27.9287V27.9287V27.9287V27.9286V27.9286V27.9286V27.9285V27.9285V27.9285V27.9284V27.9284V27.9284V27.9283V27.9283V27.9282V27.9282V27.9282V27.9281V27.9281V27.9281V27.928V27.928V27.928V27.9279V27.9279V27.9279V27.9278V27.9278V27.9277V27.9277V27.9277V27.9276V27.9276V27.9276V27.9275V27.9275V27.9275V27.9274V27.9274V27.9274V27.9273V27.9273V27.9273V27.9272V27.9272V27.9271V27.9271V27.9271V27.927V27.927V27.927V27.9269V27.9269V27.9269V27.9268V27.9268V27.9268V27.9267V27.9267V27.9267V27.9266V27.9266V27.9265V27.9265V27.9265V27.9264V27.9264V27.9264V27.9263V27.9263V27.9263V27.9262V27.9262V27.9262V27.9261V27.9261V27.9261V27.926V27.926V27.9259V27.9259V27.9259V27.9258V27.9258V27.9258C29.4791 27.5005 29.3775 26.9834 29.1297 26.3602C27.255 21.6502 23.0738 16.7997 22.2496 15.87L22.1286 15.7335L22.1239 15.5512L22.0258 11.7481L22.0125 11.2352H22.5256H22.5534C23.0851 11.2352 23.4703 10.8322 23.4703 10.3961V10.3392C23.4703 9.90345 23.0856 9.5 22.5534 9.5H16.446C15.9143 9.5 15.5291 9.90299 15.5291 10.3392V10.3961C15.5291 10.8318 15.9138 11.2352 16.446 11.2352H16.4738H16.9868L16.9736 11.7481L16.8754 15.5512L16.8707 15.7335L16.7497 15.87C15.9256 16.7997 11.7444 21.6502 9.86967 26.3602L29.4971 28.2008ZM29.4971 28.2008C29.4955 28.2399 29.4929 28.2791 29.4898 28.3187L29.4875 28.3423L29.4855 28.3629L29.4786 28.3954V28.4202C29.4236 28.8696 29.2691 29.1989 29.1087 29.4297L29.1083 29.4303C28.689 30.0354 27.9028 30.4432 26.8121 30.4961C26.7543 30.4985 26.6983 30.5 26.6438 30.5H12.3574C12.3029 30.5 12.2469 30.4985 12.1892 30.4961C11.0986 30.4432 10.3125 30.0356 9.89318 29.4307C9.73124 29.1959 9.57518 28.8627 9.52045 28.4099L9.51889 28.3951L9.51659 28.3718L9.5137 28.3422L9.5111 28.3156C9.51108 28.3155 9.51106 28.3153 9.51105 28.3151C9.50653 28.2673 9.50351 28.2195 9.50199 28.1691L9.50169 28.1591L9.50133 28.154L9.50129 28.144H9.50147L9.50111 28.1304C9.49951 28.0714 9.49955 28.0116 9.50184 27.9524L9.50222 27.9427V27.933V27.933V27.933V27.9329V27.9329V27.9329V27.9329V27.9328V27.9328V27.9328V27.9327V27.9327V27.9327V27.9326V27.9326V27.9326V27.9325V27.9325V27.9325V27.9325V27.9324V27.9324V27.9324V27.9323V27.9323V27.9323V27.9322V27.9322V27.9322V27.9321V27.9321V27.9321V27.932V27.932V27.932V27.9319V27.9319V27.9319V27.9319V27.9318V27.9318V27.9318V27.9317V27.9317V27.9317V27.9316V27.9316V27.9316V27.9315V27.9315V27.9315V27.9314V27.9314V27.9314V27.9313V27.9313V27.9313V27.9313V27.9312V27.9312V27.9312V27.9311V27.9311V27.9311V27.931V27.931V27.931V27.9309V27.9309V27.9309V27.9308V27.9308V27.9308V27.9307V27.9307V27.9307V27.9306V27.9306V27.9306V27.9305V27.9305V27.9305V27.9305V27.9304V27.9304V27.9304V27.9303V27.9303V27.9303V27.9302V27.9302V27.9302V27.9301V27.9301V27.9301V27.93V27.93V27.93V27.9299V27.9299V27.9299V27.9298V27.9298V27.9298V27.9297V27.9297V27.9297V27.9296V27.9296V27.9296V27.9295V27.9295V27.9295V27.9294V27.9294V27.9294V27.9293V27.9293V27.9293V27.9292V27.9292V27.9292V27.9291V27.9291V27.9291V27.9291V27.929V27.929V27.929V27.9289V27.9289V27.9289V27.9288V27.9288V27.9288V27.9287V27.9287V27.9287V27.9286V27.9286V27.9286V27.9285V27.9285V27.9285V27.9284V27.9284V27.9284V27.9283V27.9283V27.9283V27.9282V27.9282V27.9282V27.9281V27.9281V27.9281V27.928V27.928V27.928V27.9279V27.9279V27.9279V27.9278V27.9278V27.9278V27.9277V27.9277V27.9277V27.9276V27.9276V27.9276V27.9275V27.9275V27.9275V27.9274V27.9274V27.9273V27.9273V27.9273V27.9272V27.9272V27.9272V27.9271V27.9271V27.9271V27.927V27.927V27.927V27.9269V27.9269V27.9269V27.9268V27.9268V27.9268V27.9267V27.9267V27.9267V27.9266V27.9266V27.9266V27.9265V27.9265V27.9265V27.9264V27.9264V27.9264V27.9263V27.9263V27.9263V27.9262V27.9262V27.9262V27.9261V27.9261V27.9261V27.926V27.926V27.926V27.9259V27.9259V27.9259V27.9258V27.9258C9.52026 27.5005 9.62189 26.9834 9.86961 26.3604L29.4971 28.2008ZM26.8019 30.4105C27.4113 30.3808 28.4085 30.2123 28.9688 29.405L28.969 29.4047C29.3918 28.7946 29.4375 28.0052 29.2378 27.1723L29.2379 27.1723L29.236 27.1651L29.2268 27.1286L29.2166 27.0881L29.2166 27.0881L29.2063 27.0483L29.1971 27.0128L29.1973 27.0128L29.1941 27.0014C29.1374 26.7994 29.0669 26.5905 28.9821 26.3764L28.9819 26.3758C27.855 23.5424 25.8599 20.6296 24.3011 18.5872L24.151 18.3906H23.9036H15.0967H14.8493L14.6992 18.5872C13.1404 20.6296 11.1465 23.5421 10.0187 26.3751C9.93251 26.5901 9.86169 26.8002 9.8056 27.0036L9.80551 27.0036L9.80315 27.0128L9.79395 27.0485L9.78371 27.0881L9.78369 27.0881L9.78273 27.092C9.77696 27.1154 9.77112 27.1382 9.76472 27.1633L9.76425 27.1651L9.7642 27.1651L9.76248 27.1723C9.5628 28.0052 9.60849 28.7946 10.0313 29.4047L10.0315 29.405C10.5918 30.2123 11.589 30.3808 12.1984 30.4105C12.2566 30.4138 12.3108 30.4138 12.3519 30.4138H12.3564H15.1689H15.6689V30.4112H23.3295V30.4138H23.8295H23.8314H26.6438H26.6484C26.6895 30.4138 26.7437 30.4138 26.8019 30.4105ZM26.8019 30.4105C26.8029 30.4104 26.8039 30.4103 26.8048 30.4103L26.7753 29.9112L26.7994 30.4106C26.8002 30.4105 26.8011 30.4105 26.8019 30.4105ZM15.5533 17.4904L14.9001 18.3035H15.9431H22.8138H23.0535H23.0544V17.8035V17.8028L23.4433 17.4904C22.5979 16.4379 22.0087 15.7852 21.9866 15.7608C21.9866 15.7608 21.9866 15.7608 21.9866 15.7608L21.9779 15.7513L21.8743 11.7224L21.8618 11.2352H21.3745H17.6221H17.1348L17.1222 11.7224L17.0187 15.7513L17.01 15.7608L17.01 15.7608C16.988 15.7851 16.3988 16.4378 15.5533 17.4904ZM23.158 10.3392C23.158 9.89766 22.7878 9.58709 22.3913 9.58709H16.6062C16.2097 9.58709 15.8395 9.89766 15.8395 10.3392V10.3961C15.8395 10.8376 16.2097 11.1481 16.6062 11.1481H22.3913C22.7878 11.1481 23.158 10.8376 23.158 10.3961V10.3392Z" fill="#808080" stroke="#808080"/>
</svg>
