<svg width="40" height="40" viewBox="0 0 40 40" fill="none" xmlns="http://www.w3.org/2000/svg">
<circle cx="20" cy="20" r="19.5" stroke="#808080"/>
<path d="M11.2506 18.9728C10.5613 18.9728 10 19.5334 10 20.2235C10 20.9136 10.5605 21.4741 11.2506 21.4741C11.9407 21.4741 12.5012 20.9136 12.5012 20.2235C12.5012 19.5334 11.9407 18.9728 11.2506 18.9728ZM11.2506 20.8967C10.8795 20.8967 10.5773 20.5946 10.5773 20.2235C10.5773 19.8523 10.8795 19.5502 11.2506 19.5502C11.6218 19.5502 11.9239 19.8523 11.9239 20.2235C11.9239 20.5946 11.6218 20.8967 11.2506 20.8967Z" fill="#808080"/>
<path d="M26.6373 13.3948C27.3266 13.3948 27.888 12.8343 27.888 12.1442C27.888 11.4541 27.3275 10.8936 26.6373 10.8936C25.9472 10.8936 25.3867 11.4541 25.3867 12.1442C25.3867 12.8343 25.9472 13.3948 26.6373 13.3948ZM26.6373 11.4709C27.0085 11.4709 27.3106 11.773 27.3106 12.1442C27.3106 12.5153 27.0085 12.8175 26.6373 12.8175C26.2662 12.8175 25.9641 12.5153 25.9641 12.1442C25.9641 11.773 26.2662 11.4709 26.6373 11.4709Z" fill="#808080"/>
<path d="M29.3288 19.7434C30.018 19.7434 30.5794 19.1829 30.5794 18.4928C30.5794 17.8027 30.0189 17.2422 29.3288 17.2422C28.6386 17.2422 28.0781 17.8027 28.0781 18.4928C28.0781 19.1829 28.6386 19.7434 29.3288 19.7434ZM29.3288 17.8195C29.6999 17.8195 30.002 18.1217 30.002 18.4928C30.002 18.864 29.6999 19.1661 29.3288 19.1661C28.9576 19.1661 28.6555 18.864 28.6555 18.4928C28.6555 18.1217 28.9576 17.8195 29.3288 17.8195Z" fill="#808080"/>
<path d="M24.6604 17.4958L23.0395 14.5822C22.9511 14.4231 22.904 14.2422 22.904 14.0604V10.3817C23.2432 10.2378 23.4813 9.90118 23.4813 9.51068V8.94597C23.4813 8.42417 23.0572 8 22.5354 8H18.1228C17.6011 8 17.1769 8.42417 17.1769 8.94597V9.51068C17.1769 9.93653 17.4622 10.2942 17.8502 10.412V14.0528C17.8502 14.238 17.8022 14.4214 17.7105 14.5822L16.0062 17.585C15.8286 17.8989 15.7344 18.2549 15.7344 18.6151V29.9128C15.7344 31.0633 16.6702 32 17.8216 32H22.8367C23.9871 32 24.9238 31.0641 24.9238 29.9128V18.5091C24.9238 18.1548 24.8329 17.8038 24.6604 17.4941V17.4958ZM23.9097 29.9137C23.9097 30.5053 23.4283 30.9867 22.8367 30.9867H17.8216C17.2299 30.9867 16.7485 30.5053 16.7485 29.9137V28.2565H23.9097V29.9137ZM23.9097 27.6792H16.7485V20.7545H23.9097V27.6792ZM23.9097 20.1772H16.7485V18.6151C16.7485 18.43 16.7973 18.2465 16.8882 18.0858L18.5925 15.0829C18.77 14.7699 18.8643 14.413 18.8643 14.0528L19.0074 9.44251H18.191V9.01414H22.4664V9.44251H21.6921L21.889 14.0604C21.889 14.4147 21.9799 14.7656 22.1524 15.0754L23.7734 17.989C23.8617 18.1481 23.9089 18.3282 23.9089 18.5108V20.178L23.9097 20.1772Z" fill="#808080"/>
</svg>
