<svg width="40" height="40" viewBox="0 0 40 40" fill="none" xmlns="http://www.w3.org/2000/svg">
<circle cx="20" cy="20" r="19.5" stroke="#808080"/>
<path d="M23.6737 13.8105V12.72H24.5613C24.7701 13.4779 25.4642 14.0371 26.2874 14.0371C27.276 14.0371 28.0797 13.2335 28.0797 12.2448C28.0797 11.2562 27.276 10.4526 26.2874 10.4526C25.5211 10.4526 24.8677 10.9363 24.6114 11.6143H23.6728V10.8853C23.6728 10.1148 23.0465 9.48853 22.276 9.48853H18.8688C18.0983 9.48853 17.472 10.1148 17.472 10.8853V11.5541H15.8223V12.6606H17.472V13.6671C13.8857 14.8373 11.2092 18.1223 11.0115 22.1091C10.8587 25.1989 12.2394 28.1623 14.7063 30.036C15.5083 30.6453 18.0592 31.0001 20.5745 31.0001C22.8743 31.0001 25.1443 30.7039 26.0243 30.036C28.2358 28.3575 29.5826 25.8065 29.72 23.0367C29.9263 18.8784 27.3728 15.2116 23.6728 13.8122L23.6737 13.8105ZM26.2874 11.5583C26.6659 11.5583 26.9739 11.8663 26.9739 12.2448C26.9739 12.6233 26.6659 12.9305 26.2874 12.9305C25.9089 12.9305 25.6017 12.6225 25.6017 12.2448C25.6017 11.8672 25.9098 11.5583 26.2874 11.5583ZM18.5786 10.8853C18.5786 10.725 18.7093 10.5951 18.8688 10.5951H22.276C22.4364 10.5951 22.5662 10.7258 22.5662 10.8853V13.4702C22.0053 13.3353 21.4257 13.2479 20.8291 13.2182C20.0577 13.18 19.3041 13.2386 18.5777 13.3794V10.8853H18.5786ZM28.6151 22.9807C28.4938 25.4238 27.3057 27.6735 25.3556 29.1535C23.9282 30.2363 16.5546 30.0496 15.3759 29.1535C13.2 27.5004 11.9823 24.8875 12.1172 22.1626C12.1232 22.0438 12.1333 21.9267 12.1435 21.8087C13.5174 21.5516 18.2247 20.9355 28.5956 21.8707C28.6262 22.2364 28.6347 22.6064 28.616 22.9798L28.6151 22.9807ZM12.2318 21.1493C12.9361 17.104 16.5682 14.1126 20.7748 14.3222C22.9786 14.4317 25.0068 15.3923 26.4885 17.0276C27.5713 18.2233 28.2647 19.6761 28.5167 21.2325C18.5726 20.344 13.8781 20.8608 12.2318 21.1493Z" fill="#808080"/>
<path d="M13.4827 11.791H11.5547V12.4207H13.4827V11.791Z" fill="#808080"/>
<path d="M12.4726 9.00007L12.0273 9.44531L13.3907 10.8087L13.8359 10.3634L12.4726 9.00007Z" fill="#808080"/>
<path d="M13.3907 13.2675L12.0273 14.6309L12.4726 15.0761L13.8359 13.7128L13.3907 13.2675Z" fill="#808080"/>
</svg>
