<svg width="40" height="40" viewBox="0 0 40 40" fill="none" xmlns="http://www.w3.org/2000/svg">
<rect x="0.5" y="0.5" width="39" height="39" rx="19.5" stroke="#E6E6E6"/>
<path d="M19.9449 15.7383C17.3843 15.7383 15.2627 17.8233 15.2627 20.4205C15.2627 23.0177 17.3477 25.1027 19.9449 25.1027C22.5421 25.1027 24.6271 22.9811 24.6271 20.4205C24.6271 17.8599 22.5055 15.7383 19.9449 15.7383ZM19.9449 23.42C18.2988 23.42 16.9454 22.0666 16.9454 20.4205C16.9454 18.7744 18.2988 17.421 19.9449 17.421C21.591 17.421 22.9445 18.7744 22.9445 20.4205C22.9445 22.0666 21.591 23.42 19.9449 23.42Z" fill="#F0F0F0"/>
<path d="M24.81 16.69C25.3958 16.69 25.8708 16.215 25.8708 15.6292C25.8708 15.0433 25.3958 14.5684 24.81 14.5684C24.2241 14.5684 23.7491 15.0433 23.7491 15.6292C23.7491 16.215 24.2241 16.69 24.81 16.69Z" fill="#F0F0F0"/>
<path d="M27.5534 12.8855C26.6024 11.8979 25.2489 11.3857 23.7126 11.3857H16.1771C12.9947 11.3857 10.873 13.5074 10.873 16.6898V24.1887C10.873 25.7616 11.3852 27.1151 12.4094 28.1027C13.3971 29.0538 14.7139 29.5293 16.2137 29.5293H23.676C25.2489 29.5293 26.5658 29.0172 27.5168 28.1027C28.5045 27.1516 29.0166 25.7982 29.0166 24.2252V16.6898C29.0166 15.1535 28.5045 13.8366 27.5534 12.8855ZM27.4071 24.2252C27.4071 25.3592 27.0047 26.2737 26.3463 26.8956C25.6879 27.5174 24.7734 27.8466 23.676 27.8466H16.2137C15.1163 27.8466 14.2018 27.5174 13.5434 26.8956C12.8849 26.2371 12.5557 25.3226 12.5557 24.1887V16.6898C12.5557 15.5924 12.8849 14.6779 13.5434 14.0195C14.1652 13.3976 15.1163 13.0684 16.2137 13.0684H23.7491C24.8465 13.0684 25.761 13.3976 26.4195 14.0561C27.0413 14.7145 27.4071 15.629 27.4071 16.6898V24.2252Z" fill="#F0F0F0"/>
</svg>
