<svg width="19" height="15" viewBox="0 0 19 15" fill="none" xmlns="http://www.w3.org/2000/svg">
<g id="Frame">
<g id="packet">
<path id="Vector" d="M17 2.40876C17 1.63072 16.344 1 15.5348 1H3.4652C2.65599 1 2 1.63072 2 2.40876V11.5912C2 12.3693 2.65599 13 3.4652 13H15.5348C16.344 13 17 12.3693 17 11.5912V2.40876ZM3.47305 2.1258H15.5463C15.7079 2.1258 15.838 2.24971 15.838 2.40508V2.4173L9.71658 8.30351C9.64192 8.3753 9.55507 8.38603 9.50974 8.38603C9.46441 8.38603 9.37727 8.3753 9.30259 8.30351L3.17978 2.4165V2.40508C3.17978 2.24971 3.31147 2.1258 3.47305 2.1258ZM15.5463 11.8742H3.47305C3.31147 11.8742 3.17978 11.7456 3.17978 11.5902V4.01033L8.47391 9.10044C8.75066 9.36652 9.11866 9.51303 9.51002 9.51303C9.90143 9.51301 10.2687 9.36646 10.5454 9.10039L15.838 4.01112V11.5902C15.838 11.7456 15.7079 11.8742 15.5463 11.8742Z" fill="#585858"/>
</g>
</g>
</svg>
