<svg width="20" height="21" viewBox="0 0 20 21" fill="none" xmlns="http://www.w3.org/2000/svg">
<g id="Linear / Messages, Conversation  /  Letter Opened">
<path id="Vector" d="M14.9974 5.58398C16.0808 5.69055 16.8101 5.9314 17.3544 6.47572C18.3307 7.45203 18.3307 9.02338 18.3307 12.1661C18.3307 15.3088 18.3307 16.8801 17.3544 17.8564C16.3781 18.8327 14.8068 18.8327 11.6641 18.8327H8.33073C5.18803 18.8327 3.61668 18.8327 2.64037 17.8564C1.66406 16.8801 1.66406 15.3088 1.66406 12.1661C1.66406 9.02338 1.66406 7.45203 2.64037 6.47572C3.18469 5.9314 3.91397 5.69055 4.9974 5.58398" stroke="#585858"/>
<path id="Vector_2" d="M8.33594 5.5H11.6693" stroke="#585858" stroke-linecap="round"/>
<path id="Vector_3" d="M9.16406 8H10.8307" stroke="#585858" stroke-linecap="round"/>
<path id="Vector_4" d="M6.79908 10.3319L6.19939 9.83217C5.6096 9.34068 5.3147 9.09493 5.15735 8.75898C5 8.42303 5 8.03917 5 7.27143V6.33268C5 4.3685 5 3.3864 5.61019 2.77621C6.22039 2.16602 7.20248 2.16602 9.16667 2.16602H10.8333C12.7975 2.16602 13.7796 2.16602 14.3898 2.77621C15 3.3864 15 4.3685 15 6.33268V7.27143C15 8.03917 15 8.42303 14.8426 8.75898C14.6853 9.09493 14.3904 9.34068 13.8006 9.83217L13.2009 10.3319C11.6704 11.6074 10.9051 12.2451 10 12.2451C9.09488 12.2451 8.32961 11.6074 6.79908 10.3319Z" stroke="#585858" stroke-linecap="round"/>
<path id="Vector_5" d="M5 8.83398L6.79908 10.3332C8.32961 11.6087 9.09488 12.2464 10 12.2464C10.9051 12.2464 11.6704 11.6087 13.2009 10.3332L15 8.83398" stroke="#585858" stroke-linecap="round"/>
</g>
</svg>
