<svg xmlns="http://www.w3.org/2000/svg" width="16" height="16" viewBox="0 0 16 16" fill="none">
  <path d="M5.0471 10.2509C6.10423 8.09871 6.6328 7.02262 7.39361 6.76621C7.78736 6.63351 8.21264 6.63351 8.60639 6.76621C9.3672 7.02262 9.89577 8.09871 10.9529 10.2509L11.5387 11.4436C11.8118 11.9995 11.9484 12.2775 11.9807 12.4669C12.1148 13.2527 11.5335 13.9769 10.7503 13.9998C10.5615 14.0053 10.2667 13.9245 9.67704 13.7629C9.34009 13.6705 9.17161 13.6244 9.00311 13.5903C8.34085 13.4562 7.65915 13.4562 6.99689 13.5903C6.82839 13.6244 6.65991 13.6705 6.32296 13.7629C5.73333 13.9245 5.43851 14.0053 5.24972 13.9998C4.46653 13.9769 3.88517 13.2527 4.01931 12.4669C4.05164 12.2775 4.18818 11.9995 4.46126 11.4436L5.0471 10.2509Z" stroke="#E6E6E6"/>
  <path d="M4.09652 3.68495C4.37106 4.77212 5.14736 5.49602 5.83044 5.30181C6.51352 5.10761 6.8447 4.06885 6.57015 2.98167C6.29561 1.8945 5.5193 1.17061 4.83623 1.36481C4.15315 1.55902 3.82197 2.59778 4.09652 3.68495Z" stroke="#E6E6E6"/>
  <path d="M11.9035 3.68495C11.6289 4.77212 10.8526 5.49602 10.1696 5.30181C9.48648 5.10761 9.1553 4.06885 9.42985 2.98167C9.70439 1.8945 10.4807 1.17061 11.1638 1.36481C11.8468 1.55902 12.178 2.59778 11.9035 3.68495Z" stroke="#E6E6E6"/>
  <path d="M1.46517 8.19775C1.76517 9.00111 2.47051 9.48906 3.0406 9.28762C3.61068 9.08618 3.82962 8.27163 3.52962 7.46827C3.22962 6.66491 2.52428 6.17696 1.9542 6.37839C1.38411 6.57983 1.16517 7.39438 1.46517 8.19775Z" stroke="#E6E6E6"/>
  <path d="M14.5348 8.19775C14.2348 9.00111 13.5295 9.48906 12.9594 9.28762C12.3893 9.08618 12.1704 8.27163 12.4704 7.46827C12.7704 6.66491 13.4757 6.17696 14.0458 6.37839C14.6159 6.57983 14.8348 7.39438 14.5348 8.19775Z" stroke="#E6E6E6"/>
</svg>