<svg width="24" height="20" viewBox="0 0 24 20" fill="none" xmlns="http://www.w3.org/2000/svg">
<path d="M22.8076 0.131363C21.8134 -0.515595 15.721 1.31192 11.9927 4.44225C8.08456 1.16941 2.16069 -0.498591 1.19232 0.131363C0.386024 0.656054 0.0344784 3.98801 0.00303277 5.96451C-0.0308317 8.0827 0.191706 12.0713 2.06877 14.9822C4.17804 18.2535 6.90333 20 9.60765 20C10.4341 20 11.259 19.8332 12.0628 19.5004L12.0467 19.5433C12.8312 19.847 13.6254 19.996 14.418 19.996C17.1409 19.996 19.8315 18.2389 21.9311 14.983C23.8082 12.0721 24.0315 8.08352 23.9968 5.96532C23.9654 3.98801 23.6139 0.656054 22.8076 0.132172V0.131363ZM12.2652 18.1304C12.0169 17.4065 11.7355 16.6761 11.4275 15.9442L14.2382 9.17986C16.0016 12.8276 15.4477 16.081 12.649 17.9004C12.5216 17.983 12.3934 18.0583 12.2644 18.1304H12.2652ZM10.7873 14.5021C9.83986 12.4648 8.72637 10.4552 7.61206 8.61387L8.60139 3.51918C10.472 4.56533 12.2765 5.94183 13.3674 7.63494C13.4239 7.72319 13.4779 7.81064 13.5319 7.89809L10.7873 14.5021ZM1.17378 7.26328H5.40442C6.29377 8.64464 7.22263 10.1726 8.09988 11.7645H1.87123C1.43583 10.3183 1.23183 8.74829 1.17297 7.26328H1.17378ZM1.60757 1.79774C2.27841 2.69166 3.39271 4.21877 4.65296 6.1143H1.15443C1.16814 4.29732 1.37938 2.71433 1.60757 1.79774ZM2.59851 1.20342C3.70153 1.4107 5.5931 2.00422 7.54434 2.96291L6.72594 7.18069C5.05933 4.54994 3.4935 2.39369 2.59932 1.20342H2.59851ZM3.02907 14.3563C2.74042 13.9086 2.49369 13.4227 2.28163 12.9126H8.7175C9.69957 14.7895 10.58 16.7255 11.2138 18.5911C8.39579 19.5077 5.37056 17.9879 3.02826 14.3563H3.02907ZM20.9716 14.3563C18.8422 17.6591 16.0895 19.2389 13.44 18.7474C17.0046 16.2956 17.3618 11.7151 14.3277 7.00903C13.9189 6.37503 13.4166 5.77746 12.8506 5.21957C16.2661 2.41555 21.1603 1.09168 22.169 1.12407C22.7906 2.34349 23.7493 10.0487 20.9708 14.3571L20.9716 14.3563Z" fill="#808080"/>
</svg>
