<svg width="22" height="22" viewBox="0 0 22 22" fill="none" xmlns="http://www.w3.org/2000/svg">
<path d="M8.81162 17.5529C4.16086 17.5529 0.335938 13.7715 0.335938 9.07724C0.335938 4.42649 4.1174 0.601562 8.81162 0.601562C13.5058 0.601562 17.2873 4.38302 17.2873 9.07724C17.2438 13.7715 13.4624 17.5529 8.81162 17.5529ZM8.81162 1.86205C4.81284 1.86205 1.55296 5.12192 1.55296 9.1207C1.55296 13.1195 4.81284 16.3794 8.81162 16.3794C12.8104 16.3794 16.0703 13.1195 16.0703 9.1207C16.0268 5.12192 12.7669 1.86205 8.81162 1.86205Z" fill="#1B1B1B"/>
<path d="M21.1358 21.4092C20.8307 21.7142 20.3364 21.7151 20.0302 21.4112L14.0177 15.4429C13.6976 15.1252 13.6966 14.6079 14.0155 14.289C14.3344 13.9701 14.8517 13.971 15.1694 14.2911L21.1378 20.3036C21.4417 20.6098 21.4408 21.1041 21.1358 21.4092Z" fill="#1B1B1B"/>
</svg>
