<svg width="25" height="24" viewBox="0 0 25 24" fill="none" xmlns="http://www.w3.org/2000/svg">
<g id="Layer_1">
<g id="Group">
<path id="Vector" d="M19.5971 12.6867C19.5685 9.80516 21.9469 8.4231 22.0533 8.35328C20.7165 6.39879 18.634 6.13061 17.8928 6.10009C16.1218 5.92022 14.4355 7.14323 13.5371 7.14323C12.6406 7.14323 11.2525 6.12645 9.78397 6.15234C7.85213 6.18101 6.0715 7.27593 5.07737 9.00524C3.07109 12.4856 4.56413 17.6435 6.51908 20.4682C7.47483 21.8489 8.6146 23.4025 10.1099 23.3456C11.5512 23.2887 12.095 22.4134 13.8372 22.4134C15.5795 22.4134 16.0687 23.3456 17.5932 23.3165C19.1431 23.2882 20.1256 21.9094 21.0735 20.5232C22.1707 18.9192 22.6225 17.366 22.6493 17.2874C22.6156 17.2717 19.6281 16.1273 19.5971 12.6867Z" fill="black"/>
<path id="Vector_2" d="M16.7309 4.23163C17.5238 3.26895 18.0611 1.93127 17.915 0.599609C16.7706 0.645848 15.3853 1.36023 14.5637 2.32199C13.8275 3.17554 13.1839 4.53449 13.3564 5.84211C14.633 5.94106 15.9351 5.19246 16.7309 4.23163Z" fill="black"/>
</g>
</g>
</svg>
