<svg width="25" height="24" viewBox="0 0 25 24" fill="none" xmlns="http://www.w3.org/2000/svg">
<g id="Layer_1">
<g id="Group">
<path id="Vector" d="M12.1602 24C5.53376 24 0.160156 18.6264 0.160156 12C0.160156 5.3736 5.53376 0 12.1602 0C18.7866 0 24.1602 5.3736 24.1602 12C24.1602 18.6264 18.7866 24 12.1602 24Z" fill="#3B579D"/>
<path id="f" d="M15.279 24.0006V14.7054H18.399L18.867 11.0838H15.279V8.77015C15.279 7.72135 15.5694 7.00615 17.0742 7.00615H18.9918V3.76855C18.6606 3.72535 17.5206 3.62695 16.1958 3.62695C13.431 3.62695 11.5374 5.31415 11.5374 8.41495V11.0862H8.41016V14.7078H11.5374V24.0006H15.279Z" fill="white"/>
</g>
</g>
</svg>
