<svg width="40" height="40" viewBox="0 0 40 40" fill="none" xmlns="http://www.w3.org/2000/svg">
<rect x="0.5" y="0.5" width="39" height="39" rx="19.5" stroke="#E6E6E6"/>
<path d="M24.5945 19.2983C24.5118 19.2586 24.4278 19.2205 24.3426 19.1839C24.1945 16.4532 22.7023 14.8899 20.1968 14.8738C20.1854 14.8738 20.1742 14.8738 20.1628 14.8738C18.6642 14.8738 17.4178 15.5135 16.6507 16.6774L18.0287 17.6225C18.6018 16.753 19.5012 16.5677 20.1635 16.5677C20.1712 16.5677 20.1788 16.5677 20.1865 16.5677C21.0115 16.573 21.634 16.8129 22.0368 17.2805C22.3301 17.621 22.5262 18.0916 22.6232 18.6855C21.8918 18.5611 21.1007 18.523 20.2553 18.5714C17.8732 18.7086 16.3418 20.098 16.4446 22.0283C16.4968 23.0075 16.9846 23.8499 17.8182 24.4002C18.5229 24.8654 19.4307 25.0929 20.374 25.0414C21.6198 24.9732 22.5971 24.4979 23.2788 23.6288C23.7967 22.9688 24.1242 22.1135 24.2687 21.0358C24.8624 21.3941 25.3024 21.8657 25.5454 22.4324C25.9587 23.3958 25.9828 24.9793 24.6907 26.27C23.5588 27.4008 22.1982 27.89 20.142 27.9052C17.861 27.8883 16.1359 27.1568 15.0143 25.731C13.9642 24.3963 13.4213 22.4679 13.4012 19.9996C13.4215 17.5313 13.9642 15.6029 15.0145 14.2677C16.136 12.8419 17.861 12.1104 20.1421 12.0935C22.4396 12.1105 24.1948 12.8455 25.3593 14.2783C25.9303 14.9808 26.3609 15.8644 26.6446 16.8946L28.2593 16.4638C27.9153 15.1958 27.374 14.1032 26.6374 13.1969C25.1445 11.36 22.961 10.4189 20.1478 10.3994H20.1365C17.3288 10.4188 15.1699 11.3636 13.7195 13.2074C12.4288 14.8482 11.7631 17.1311 11.7407 19.9929V19.9996V20.0063C11.7631 22.868 12.4288 25.151 13.7195 26.7918C15.1699 28.6355 17.3288 29.5804 20.1365 29.5997H20.1478C22.6438 29.5824 24.4032 28.9289 25.8528 27.4808C27.7492 25.5863 27.692 23.2116 27.067 21.7538C26.6184 20.7083 25.7635 19.8593 24.5945 19.2983ZM20.2848 23.3504C19.2407 23.4091 18.1562 22.9405 18.1026 21.9368C18.0629 21.1925 18.6323 20.3621 20.3488 20.2632C20.5454 20.2518 20.7384 20.2463 20.9279 20.2463C21.5513 20.2463 22.1348 20.3069 22.6651 20.4229C22.4671 22.8932 21.307 23.2943 20.2848 23.3504Z" fill="white"/>
</svg>
