<svg width="40" height="40" viewBox="0 0 40 40" fill="none" xmlns="http://www.w3.org/2000/svg">
<rect x="0.5" y="0.5" width="39" height="39" rx="19.5" stroke="#E6E6E6"/>
<g clip-path="url(#clip0_634_15693)">
<path d="M28.8888 17.8295C27.1418 17.8336 25.4376 17.2973 24.017 16.2963V23.2775C24.0165 24.5705 23.615 25.8326 22.8662 26.8949C22.1174 27.9572 21.057 28.7692 19.8268 29.2223C18.5965 29.6753 17.2551 29.7479 15.9818 29.4302C14.7085 29.1125 13.5641 28.4198 12.7016 27.4445C11.8391 26.4693 11.2996 25.2582 11.1553 23.973C11.0109 22.6878 11.2686 21.3899 11.8938 20.2528C12.5191 19.1157 13.4821 18.1935 14.6541 17.6097C15.8261 17.0259 17.1512 16.8082 18.4523 16.9857V20.4971C17.8569 20.3127 17.2176 20.3183 16.6256 20.5129C16.0337 20.7076 15.5193 21.0814 15.156 21.581C14.7927 22.0806 14.5991 22.6804 14.6028 23.2948C14.6065 23.9091 14.8072 24.5067 15.1765 25.002C15.5457 25.4973 16.0645 25.8652 16.6588 26.053C17.2531 26.2407 17.8924 26.2389 18.4855 26.0476C19.0787 25.8564 19.5953 25.4856 19.9615 24.9881C20.3278 24.4906 20.525 23.8919 20.5249 23.2775V9.62988H24.017C24.0146 9.92017 24.0393 10.2101 24.0908 10.4959C24.2122 11.134 24.4645 11.741 24.8323 12.2798C25.2001 12.8186 25.6758 13.2778 26.2301 13.6295C27.0188 14.1428 27.9434 14.4164 28.8888 14.4162V17.8295Z" fill="#F0F0F0"/>
</g>
<defs>
<clipPath id="clip0_634_15693">
<rect width="17.7778" height="20" fill="white" transform="translate(11.1113 9.62988)"/>
</clipPath>
</defs>
</svg>
