<svg width="25" height="24" viewBox="0 0 25 24" fill="none" xmlns="http://www.w3.org/2000/svg">
<path d="M3.00293 6.49951C3.00293 4.61389 3.00293 3.67108 3.58872 3.0853C4.1745 2.49951 5.11731 2.49951 7.00293 2.49951C8.88855 2.49951 9.83136 2.49951 10.4171 3.0853C11.0029 3.67108 11.0029 4.61389 11.0029 6.49951C11.0029 8.38513 11.0029 9.32794 10.4171 9.91372C9.83136 10.4995 8.88855 10.4995 7.00293 10.4995C5.11731 10.4995 4.1745 10.4995 3.58872 9.91372C3.00293 9.32794 3.00293 8.38513 3.00293 6.49951Z" stroke="#1B1B1B" stroke-width="1.25"/>
<path d="M14 17.5C14 15.6144 14 14.6716 14.5858 14.0858C15.1716 13.5 16.1144 13.5 18 13.5C19.8856 13.5 20.8284 13.5 21.4142 14.0858C22 14.6716 22 15.6144 22 17.5C22 19.3856 22 20.3284 21.4142 20.9142C20.8284 21.5 19.8856 21.5 18 21.5C16.1144 21.5 15.1716 21.5 14.5858 20.9142C14 20.3284 14 19.3856 14 17.5Z" stroke="#1B1B1B" stroke-width="1.25"/>
<path d="M3.00293 17.5C3.00293 15.6144 3.00293 14.6716 3.58872 14.0858C4.1745 13.5 5.11731 13.5 7.00293 13.5C8.88855 13.5 9.83136 13.5 10.4171 14.0858C11.0029 14.6716 11.0029 15.6144 11.0029 17.5C11.0029 19.3856 11.0029 20.3284 10.4171 20.9142C9.83136 21.5 8.88855 21.5 7.00293 21.5C5.11731 21.5 4.1745 21.5 3.58872 20.9142C3.00293 20.3284 3.00293 19.3856 3.00293 17.5Z" stroke="#1B1B1B" stroke-width="1.25"/>
<path d="M14 6.49951C14 4.61389 14 3.67108 14.5858 3.0853C15.1716 2.49951 16.1144 2.49951 18 2.49951C19.8856 2.49951 20.8284 2.49951 21.4142 3.0853C22 3.67108 22 4.61389 22 6.49951C22 8.38513 22 9.32794 21.4142 9.91372C20.8284 10.4995 19.8856 10.4995 18 10.4995C16.1144 10.4995 15.1716 10.4995 14.5858 9.91372C14 9.32794 14 8.38513 14 6.49951Z" stroke="#1B1B1B" stroke-width="1.25"/>
</svg>
