<svg width="20" height="20" viewBox="0 0 20 20" fill="none" xmlns="http://www.w3.org/2000/svg">
<g id="Linear / Essentional, UI / Add Square">
<path id="Vector" d="M1.66406 9.99935C1.66406 6.07098 1.66406 4.10679 2.88445 2.8864C4.10484 1.66602 6.06902 1.66602 9.9974 1.66602C13.9258 1.66602 15.89 1.66602 17.1103 2.8864C18.3307 4.10679 18.3307 6.07098 18.3307 9.99935C18.3307 13.9277 18.3307 15.8919 17.1103 17.1123C15.89 18.3327 13.9258 18.3327 9.9974 18.3327C6.06902 18.3327 4.10484 18.3327 2.88445 17.1123C1.66406 15.8919 1.66406 13.9277 1.66406 9.99935Z" stroke="#585858"/>
<path id="Vector_2" d="M12.5 10L10 10M10 10L7.5 10M10 10L10 7.5M10 10L10 12.5" stroke="#585858" stroke-linecap="round"/>
</g>
</svg>
