<svg width="24" height="24" viewBox="0 0 24 24" fill="none" xmlns="http://www.w3.org/2000/svg">
<g id="courier25p">
<path id="Vector" d="M6.26937 19.6403C7.32424 19.6403 8.17938 18.7852 8.17938 17.7303C8.17938 16.6754 7.32424 15.8203 6.26937 15.8203C5.21451 15.8203 4.35938 16.6754 4.35938 17.7303C4.35938 18.7852 5.21451 19.6403 6.26937 19.6403Z" stroke="#585858" stroke-width="1.25" stroke-miterlimit="10"/>
<path id="Vector_2" d="M17.7264 19.6403C18.7813 19.6403 19.6364 18.7852 19.6364 17.7303C19.6364 16.6754 18.7813 15.8203 17.7264 15.8203C16.6715 15.8203 15.8164 16.6754 15.8164 17.7303C15.8164 18.7852 16.6715 19.6403 17.7264 19.6403Z" stroke="#585858" stroke-width="1.25" stroke-miterlimit="10"/>
<path id="Vector_3" d="M4.36 17.7304H3.5C2.39543 17.7304 1.5 16.8349 1.5 15.7304V6.36035C1.5 5.25578 2.39543 4.36035 3.5 4.36035H16.68C17.7846 4.36035 18.68 5.25578 18.68 6.36035V7.70822C18.68 8.01871 18.7523 8.32493 18.8911 8.60264L20.315 11.4504C20.4942 11.8088 20.7769 12.105 21.1264 12.3009L21.4775 12.4975C22.1089 12.8513 22.5 13.5186 22.5 14.2424V15.7304C22.5 16.8349 21.6046 17.7304 20.5 17.7304H19.64" stroke="#585858" stroke-width="1.25" stroke-miterlimit="10"/>
<path id="Vector_4" d="M15.8158 17.7305H8.17578" stroke="#585858" stroke-width="1.25" stroke-miterlimit="10"/>
<path id="Vector_5" d="M20.5894 11.9997H14.8594V8.17969H18.6794" stroke="#585858" stroke-width="1.25" stroke-miterlimit="10"/>
</g>
</svg>
