<svg width="20" height="20" viewBox="0 0 20 20" fill="none" xmlns="http://www.w3.org/2000/svg">
<g id="Icons/Edit">
<path id="Vector" d="M9.17187 3.33398H3.33854C2.89651 3.33398 2.47259 3.50958 2.16003 3.82214C1.84747 4.1347 1.67188 4.55862 1.67188 5.00065V16.6673C1.67188 17.1093 1.84747 17.5333 2.16003 17.8458C2.47259 18.1584 2.89651 18.334 3.33854 18.334H15.0052C15.4472 18.334 15.8712 18.1584 16.1837 17.8458C16.4963 17.5333 16.6719 17.1093 16.6719 16.6673V10.834" stroke="#585858" stroke-linecap="round" stroke-linejoin="round"/>
<path id="Vector_2" d="M15.4219 2.08417C15.7534 1.75265 16.203 1.56641 16.6719 1.56641C17.1407 1.56641 17.5904 1.75265 17.9219 2.08417C18.2534 2.41569 18.4396 2.86533 18.4396 3.33417C18.4396 3.80301 18.2534 4.25265 17.9219 4.58417L10.0052 12.5008L6.67188 13.3342L7.50521 10.0008L15.4219 2.08417Z" stroke="#585858" stroke-linecap="round" stroke-linejoin="round"/>
</g>
</svg>
