<svg width="24" height="24" viewBox="0 0 24 24" fill="none" xmlns="http://www.w3.org/2000/svg">
<g id="Frame">
<g id="Layer2">
<path id="Vector" fill-rule="evenodd" clip-rule="evenodd" d="M12 6.36276C11.4744 5.1402 10.7393 3.62028 10.0927 2.97396C9.12744 2.00868 7.56 2.00868 6.59472 2.97396C5.62944 3.93948 5.62944 5.50692 6.59472 6.4722C6.96984 6.84732 7.63944 7.25268 8.37456 7.62948H4.5C3.25728 7.62924 2.25 8.63676 2.25 9.87924V19.4999C2.25 20.7426 3.25728 21.7499 4.5 21.7499H19.5C20.7427 21.7499 21.75 20.7426 21.75 19.4999V9.87924C21.75 8.63676 20.7427 7.62924 19.5 7.62948H15.6254C16.3606 7.25268 17.0302 6.84732 17.4053 6.4722C18.3706 5.50692 18.3706 3.93948 17.4053 2.97396C16.44 2.00868 14.8726 2.00868 13.9073 2.97396C13.2607 3.62028 12.5256 5.1402 12 6.36276ZM20.25 17.277V19.4999C20.25 19.9141 19.9142 20.2499 19.5 20.2499H4.5C4.08576 20.2499 3.75 19.9141 3.75 19.4999V17.277H20.25ZM10.1894 9.12948H4.5C4.08576 9.12948 3.75 9.46524 3.75 9.87924V15.777H20.25V9.87924C20.25 9.46524 19.9142 9.12948 19.5 9.12948H13.8106L15.6238 10.9424C15.9166 11.2352 15.9166 11.7104 15.6238 12.0032C15.3312 12.2958 14.8558 12.2958 14.5632 12.0032L12 9.44004L9.4368 12.0032C9.14424 12.2958 8.6688 12.2958 8.37624 12.0032C8.08344 11.7104 8.08344 11.2352 8.37624 10.9424L10.1894 9.12948ZM13.2991 7.08012C13.7506 5.98452 14.3904 4.61196 14.9678 4.03476C15.3478 3.65484 15.9648 3.65484 16.3447 4.03476C16.7246 4.41468 16.7246 5.03148 16.3447 5.41164C15.7673 5.98884 14.395 6.62892 13.2991 7.08012ZM10.7009 7.08012C9.60504 6.62892 8.23272 5.98884 7.65528 5.41164C7.27536 5.03148 7.27536 4.41468 7.65528 4.03476C8.0352 3.65484 8.65224 3.65484 9.03216 4.03476C9.6096 4.61196 10.2494 5.98452 10.7009 7.08012Z" fill="#585858"/>
</g>
</g>
</svg>
