<svg width="20" height="20" viewBox="0 0 20 20" fill="none" xmlns="http://www.w3.org/2000/svg">
<g id="Linear / Security / Lock Keyhole">
<path id="Vector" d="M1.66406 13.333C1.66406 10.976 1.66406 9.79747 2.3963 9.06524C3.12853 8.33301 4.30704 8.33301 6.66406 8.33301H13.3307C15.6878 8.33301 16.8663 8.33301 17.5985 9.06524C18.3307 9.79747 18.3307 10.976 18.3307 13.333C18.3307 15.69 18.3307 16.8685 17.5985 17.6008C16.8663 18.333 15.6878 18.333 13.3307 18.333H6.66406C4.30704 18.333 3.12853 18.333 2.3963 17.6008C1.66406 16.8685 1.66406 15.69 1.66406 13.333Z" stroke="#1B1B1B" stroke-width="1.25"/>
<circle id="Vector_2" cx="10.0026" cy="13.3327" r="1.66667" stroke="#1B1B1B" stroke-width="1.25"/>
<path id="Vector_3" d="M5 8.33268V6.66602C5 3.90459 7.23858 1.66602 10 1.66602C12.7614 1.66602 15 3.90459 15 6.66602V8.33268" stroke="#1B1B1B" stroke-width="1.25" stroke-linecap="round"/>
</g>
</svg>
