<svg width="20" height="20" viewBox="0 0 20 20" fill="none" xmlns="http://www.w3.org/2000/svg">
<g id="Linear / Arrows Action / Login 2">
<path id="Vector" d="M1.66406 10L13.3307 10M13.3307 10L10.4141 7.5M13.3307 10L10.4141 12.5" stroke="#1B1B1B" stroke-width="1.25" stroke-linecap="round" stroke-linejoin="round"/>
<path id="Vector_2" d="M7.5 5.83366C7.51009 4.02114 7.59046 3.03955 8.23078 2.39923C8.96302 1.66699 10.1415 1.66699 12.4986 1.66699L13.3319 1.66699C15.6889 1.66699 16.8674 1.66699 17.5997 2.39923C18.3319 3.13146 18.3319 4.30997 18.3319 6.66699L18.3319 13.3337C18.3319 15.6907 18.3319 16.8692 17.5997 17.6014C16.8674 18.3337 15.6889 18.3337 13.3319 18.3337L12.4986 18.3337C10.1415 18.3337 8.96302 18.3337 8.23078 17.6014C7.59046 16.9611 7.51009 15.9795 7.5 14.167" stroke="#1B1B1B" stroke-width="1.25" stroke-linecap="round"/>
</g>
</svg>
