<svg width="24" height="24" viewBox="0 0 24 24" fill="none" xmlns="http://www.w3.org/2000/svg">
<g id="Frame">
<g id="_x32_50-paypal">
<g id="Group">
<path id="Vector" d="M12.4072 12.6212C15.0902 12.5895 17.1146 11.5218 17.9679 9.03713C18.8253 6.62388 18.607 4.39322 16.2215 3.46836C14.6775 2.86903 14.1694 3.01589 8.12442 3.01589C7.73146 3.01589 7.39012 3.30565 7.33053 3.68667L5.00466 18.448C4.96498 18.7377 5.18325 18.9997 5.48488 18.9997H8.44588C8.52527 18.9997 8.55302 18.972 8.56495 18.9006C8.72766 17.8963 9.27945 14.3439 9.41832 13.5818C9.64861 12.3434 10.6846 12.6491 12.4072 12.6212Z" fill="#002D8A"/>
<path id="Vector_2" d="M19.1695 7.87035C19.098 7.81874 19.0703 7.79886 19.0504 7.92188C18.971 8.37443 18.848 8.81497 18.7011 9.25559C17.1174 13.7725 12.7275 13.3796 10.5841 13.3796C10.342 13.3796 10.1832 13.5106 10.1515 13.7526C9.25445 19.3253 9.07582 20.4883 9.07582 20.4883C9.0361 20.7701 9.21474 21.0003 9.49656 21.0003H12.017C12.3583 21.0003 12.6401 20.7502 12.7076 20.409C12.7354 20.1946 12.664 20.6511 13.2792 16.7851C13.4617 15.9119 13.8467 16.0033 14.4421 16.0033C17.2603 16.0033 19.4591 14.8601 20.1141 11.5458C20.3722 10.1645 20.2967 8.71178 19.1695 7.87035Z" fill="#019BE1"/>
</g>
</g>
</g>
</svg>
