<svg width="24" height="25" viewBox="0 0 24 25" fill="none" xmlns="http://www.w3.org/2000/svg">
<path fill-rule="evenodd" clip-rule="evenodd" d="M21.5097 9.52291C21.6381 9.49499 21.7707 9.49264 21.9 9.516C22.1608 9.56323 22.3921 9.71203 22.5432 9.92972C22.6944 10.1474 22.7529 10.4162 22.706 10.677L22.578 11.387C22.37 12.5407 21.7633 13.5846 20.8638 14.3364C19.9643 15.0882 18.8293 15.5001 17.657 15.5H5.728C5.93483 16.085 6.31796 16.5915 6.82461 16.9497C7.33127 17.3078 7.93652 17.5001 8.557 17.5H19C19.2652 17.5 19.5196 17.6054 19.7071 17.7929C19.8946 17.9804 20 18.2348 20 18.5C20 18.7652 19.8946 19.0196 19.7071 19.2071C19.5196 19.3946 19.2652 19.5 19 19.5H8.557C7.33185 19.5 6.14934 19.0502 5.23391 18.236C4.31848 17.4218 3.73385 16.2998 3.591 15.083L2.215 3.383C2.18634 3.13975 2.06941 2.91547 1.88637 2.75272C1.70334 2.58996 1.46693 2.50003 1.222 2.5H1C0.734784 2.5 0.48043 2.39464 0.292893 2.20711C0.105357 2.01957 0 1.76522 0 1.5C0 1.23478 0.105357 0.98043 0.292893 0.792893C0.48043 0.605357 0.734784 0.5 1 0.5H1.222C1.95647 0.500313 2.66532 0.770054 3.21419 1.2581C3.76306 1.74615 4.11382 2.4186 4.2 3.148L4.242 3.5H11C11.2652 3.5 11.5196 3.60536 11.7071 3.79289C11.8946 3.98043 12 4.23478 12 4.5C12 4.76522 11.8946 5.01957 11.7071 5.20711C11.5196 5.39464 11.2652 5.5 11 5.5H4.478L5.418 13.5H17.657C18.3605 13.5001 19.0416 13.253 19.5814 12.8019C20.1212 12.3508 20.4853 11.7243 20.61 11.032L20.738 10.323C20.7613 10.1937 20.8098 10.0702 20.8808 9.95968C20.9518 9.84913 21.0439 9.75366 21.1518 9.67871C21.2597 9.60377 21.3813 9.55083 21.5097 9.52291ZM23.685 1.836C23.4975 1.64852 23.2431 1.54321 22.978 1.54321C22.7128 1.54321 22.4585 1.64852 22.271 1.836L17.112 7L15.561 5.381C15.47 5.28631 15.3612 5.21048 15.2409 5.15783C15.1206 5.10518 14.9911 5.07675 14.8598 5.07415C14.7285 5.07155 14.5979 5.09483 14.4756 5.14268C14.3533 5.19052 14.2417 5.26199 14.147 5.353C14.0523 5.444 13.9765 5.55277 13.9238 5.67308C13.8712 5.79339 13.8427 5.9229 13.8401 6.0542C13.8349 6.31937 13.9352 6.57578 14.119 6.767L15.733 8.446C15.905 8.63175 16.1128 8.78069 16.344 8.88382C16.5752 8.98695 16.8249 9.04212 17.078 9.046H17.111C17.359 9.04681 17.6048 8.99835 17.834 8.90342C18.0631 8.80849 18.2712 8.66898 18.446 8.493L23.685 3.25C23.8725 3.06247 23.9778 2.80816 23.9778 2.543C23.9778 2.27783 23.8725 2.02352 23.685 1.836ZM9.00002 22.5C9.00002 23.6046 8.10458 24.5 7.00002 24.5C5.89545 24.5 5.00002 23.6046 5.00002 22.5C5.00002 21.3954 5.89545 20.5 7.00002 20.5C8.10458 20.5 9.00002 21.3954 9.00002 22.5ZM19 22.5C19 23.6046 18.1046 24.5 17 24.5C15.8954 24.5 15 23.6046 15 22.5C15 21.3954 15.8954 20.5 17 20.5C18.1046 20.5 19 21.3954 19 22.5Z" fill="white"/>
</svg>
