<svg width="27" height="28" viewBox="0 0 27 28" fill="none" xmlns="http://www.w3.org/2000/svg">
<g clip-path="url(#clip0_427_16073)">
<path d="M13.5 0.605469C6.05639 0.605469 0 6.66186 0 14.1055C0 21.5491 6.05639 27.6055 13.5 27.6055C20.9436 27.6055 27 21.5491 27 14.1055C27 6.66186 20.9436 0.605469 13.5 0.605469ZM21.0451 10.5528L12.4173 19.113C11.9098 19.6205 11.0977 19.6543 10.5564 19.1468L5.98872 14.9852C5.44737 14.4776 5.41353 13.6318 5.88722 13.0904C6.39474 12.5491 7.2406 12.5152 7.78196 13.0228L11.4023 16.3386L19.1165 8.62427C19.6579 8.08291 20.5038 8.08291 21.0451 8.62427C21.5865 9.16562 21.5865 10.0115 21.0451 10.5528Z" fill="#FF5981"/>
</g>
<defs>
<clipPath id="clip0_427_16073">
<rect width="27" height="27" fill="white" transform="translate(0 0.605469)"/>
</clipPath>
</defs>
</svg>
