<svg width="24" height="24" viewBox="0 0 24 24" fill="none" xmlns="http://www.w3.org/2000/svg">
<g id="icon">
<circle id="Ellipse 14" cx="12" cy="12" r="11.5" stroke="#1B1B1B"/>
<g id="Group">
<path id="Vector" d="M14.2058 8.28655V7.63227H14.7383C14.8636 8.08696 15.2801 8.4225 15.774 8.4225C16.3672 8.4225 16.8494 7.94032 16.8494 7.34714C16.8494 6.75396 16.3672 6.27177 15.774 6.27177C15.3142 6.27177 14.9222 6.562 14.7684 6.96882H14.2052V6.53145C14.2052 6.06912 13.8295 5.69336 13.3672 5.69336H11.3228C10.8605 5.69336 10.4847 6.06912 10.4847 6.53145V6.93268H9.49492V7.59663H10.4847V8.20051C8.333 8.90265 6.72708 10.8736 6.60844 13.2657C6.51679 15.1196 7.34521 16.8976 8.82537 18.0219C9.30653 18.3874 10.8371 18.6003 12.3463 18.6003C13.7261 18.6003 15.0881 18.4226 15.6162 18.0219C16.9431 17.0147 17.7511 15.4842 17.8336 13.8222C17.9573 11.3273 16.4252 9.12719 14.2052 8.28757L14.2058 8.28655ZM15.774 6.93522C16.0011 6.93522 16.1859 7.12005 16.1859 7.34714C16.1859 7.57423 16.0011 7.75855 15.774 7.75855C15.5469 7.75855 15.3626 7.57372 15.3626 7.34714C15.3626 7.12056 15.5474 6.93522 15.774 6.93522ZM11.1487 6.53145C11.1487 6.43522 11.2271 6.35731 11.3228 6.35731H13.3672C13.4634 6.35731 13.5413 6.43573 13.5413 6.53145V8.08238C13.2047 8.00142 12.857 7.94898 12.499 7.93115C12.0362 7.90824 11.584 7.94338 11.1482 8.0279L11.1487 6.53145ZM17.1706 13.7886C17.0978 15.2545 16.385 16.6043 15.2149 17.4923C14.3585 18.142 9.93434 18.03 9.2271 17.4923C7.92159 16.5005 7.19093 14.9327 7.27189 13.2978C7.27546 13.2265 7.28157 13.1562 7.28768 13.0855C8.11202 12.9312 10.9364 12.5615 17.1589 13.1226C17.1773 13.3421 17.1818 13.5646 17.1706 13.7886ZM7.34063 12.6898C7.76324 10.2626 9.94248 8.46782 12.4664 8.59358C13.7887 8.65927 15.0057 9.23565 15.8947 10.2168C16.5444 10.9342 16.9604 11.8059 17.1116 12.7397C11.1451 12.2066 8.32842 12.5167 7.34063 12.6898Z" fill="#1B1B1B"/>
<path id="Vector_2" d="M8.09042 7.0752H6.93359V7.453H8.09042V7.0752Z" fill="#1B1B1B"/>
<path id="Vector_3" d="M7.4859 5.40082L7.21875 5.66797L8.03676 6.48598L8.3039 6.21883L7.4859 5.40082Z" fill="#1B1B1B"/>
<path id="Vector_4" d="M8.03675 7.96129L7.21875 8.7793L7.48589 9.04644L8.3039 8.22844L8.03675 7.96129Z" fill="#1B1B1B"/>
</g>
</g>
</svg>
