<svg width="12" height="12" viewBox="0 0 12 12" fill="none" xmlns="http://www.w3.org/2000/svg">
<path fill-rule="evenodd" clip-rule="evenodd" d="M9.96 8.28L11.64 9.96C12.12 10.44 12.12 11.16 11.64 11.64C11.16 12.12 10.44 12.12 9.96 11.64L8.28 9.96C7.44 10.5 6.48 10.8 5.4 10.8C2.4 10.8 0 8.4 0 5.4C0 2.4 2.4 0 5.4 0C8.4 0 10.8 2.4 10.8 5.4C10.8 6.48 10.5 7.44 9.96 8.28ZM1.2 5.4C1.2 7.74 3.06 9.6 5.4 9.6C7.68 9.6 9.6 7.74 9.6 5.4C9.6 3.06 7.74 1.2 5.4 1.2C3.06 1.2 1.2 3.06 1.2 5.4ZM6.00179 4.80004H7.80179C8.10179 4.80004 8.40179 5.04004 8.40179 5.40004C8.40179 5.76004 8.16179 6.00004 7.80179 6.00004H6.00179V7.80004C6.00179 8.16004 5.76179 8.40004 5.40179 8.40004C5.04179 8.40004 4.80179 8.16004 4.80179 7.80004V6.00004H3.00179C2.64179 6.00004 2.40179 5.76004 2.40179 5.40004C2.40179 5.04004 2.70179 4.80004 3.00179 4.80004H4.80179V3.00004C4.80179 2.70004 5.04179 2.40004 5.40179 2.40004C5.76179 2.40004 6.00179 2.64004 6.00179 3.00004V4.80004Z" fill="#858889"/>
</svg>
